ISO-10303-21;
HEADER;
FILE_DESCRIPTION(('STEP AP242'),'1');
FILE_NAME('0627778.step','2026-03-05T10:30:23',(' '),(' '),'Spatial InterOp 3D','ACISToSTEP',' ');
FILE_SCHEMA(('AP242_MANAGED_MODEL_BASED_3D_ENGINEERING_MIM_LF  {1 0 10303 442 1 1 4}'));
ENDSEC;
DATA;
#1=PRODUCT_DEFINITION_CONTEXT('',#16,'design');
#2=APPLICATION_PROTOCOL_DEFINITION('INTERNATIONAL STANDARD','ap242_managed_model_based_3d_engineering',2014,#16);
#3=PRODUCT_CATEGORY_RELATIONSHIP('NONE','NONE',#17,#18);
#4=SHAPE_DEFINITION_REPRESENTATION(#19,#20);
#5=PRODUCT_DEFINITION_CONTEXT('',#21,'design');
#6=APPLICATION_PROTOCOL_DEFINITION('INTERNATIONAL STANDARD','ap242_managed_model_based_3d_engineering',2014,#21);
#7=PRODUCT_CATEGORY_RELATIONSHIP('NONE','NONE',#22,#23);
#8=CONTEXT_DEPENDENT_SHAPE_REPRESENTATION(#24,#25);
#9=SHAPE_DEFINITION_REPRESENTATION(#26,#27);
#10=SHAPE_REPRESENTATION_RELATIONSHIP('NONE','NONE',#27,#28);
#11=MECHANICAL_DESIGN_GEOMETRIC_PRESENTATION_REPRESENTATION(' ',(#29),#12);
#12= (GEOMETRIC_REPRESENTATION_CONTEXT(3)GLOBAL_UNCERTAINTY_ASSIGNED_CONTEXT((#32))GLOBAL_UNIT_ASSIGNED_CONTEXT((#34,#35,#36))REPRESENTATION_CONTEXT('NONE','WORKSPACE'));
#16=APPLICATION_CONTEXT('managed model based 3d engineering');
#17=PRODUCT_CATEGORY('part','NONE');
#18=PRODUCT_RELATED_PRODUCT_CATEGORY('detail',' ',(#38));
#19=PRODUCT_DEFINITION_SHAPE('NONE','NONE',#39);
#20=SHAPE_REPRESENTATION('Product',(#40,#41),#42);
#21=APPLICATION_CONTEXT('managed model based 3d engineering');
#22=PRODUCT_CATEGORY('part','NONE');
#23=PRODUCT_RELATED_PRODUCT_CATEGORY('detail',' ',(#43));
#24=(REPRESENTATION_RELATIONSHIP('','',#27,#20)REPRESENTATION_RELATIONSHIP_WITH_TRANSFORMATION(#46)SHAPE_REPRESENTATION_RELATIONSHIP());
#25=PRODUCT_DEFINITION_SHAPE('NAUO-PROD-DEF','NAUO-PROD-DEF',#48);
#26=PRODUCT_DEFINITION_SHAPE('NONE','NONE',#49);
#27=SHAPE_REPRESENTATION('Part',(#40),#42);
#28=ADVANCED_BREP_SHAPE_REPRESENTATION('',(#50),#12);
#29=STYLED_ITEM('',(#51),#50);
#32=UNCERTAINTY_MEASURE_WITH_UNIT(LENGTH_MEASURE(1.0E-06),#34,'','');
#34= (CONVERSION_BASED_UNIT('MILLIMETRE',#54)LENGTH_UNIT()NAMED_UNIT(#57));
#35= (NAMED_UNIT(#59)PLANE_ANGLE_UNIT()SI_UNIT($,.RADIAN.));
#36= (NAMED_UNIT(#59)SOLID_ANGLE_UNIT()SI_UNIT($,.STERADIAN.));
#38=PRODUCT('Product','Product','PART--DESC',(#65));
#39=PRODUCT_DEFINITION('Product','Product',#66,#1);
#40=AXIS2_PLACEMENT_3D('',#67,#68,#69);
#41=AXIS2_PLACEMENT_3D('',#70,#71,#72);
#42= (GEOMETRIC_REPRESENTATION_CONTEXT(3)GLOBAL_UNCERTAINTY_ASSIGNED_CONTEXT((#75))GLOBAL_UNIT_ASSIGNED_CONTEXT((#77,#78,#79))REPRESENTATION_CONTEXT('NONE','WORKSPACE'));
#43=PRODUCT('Part','Part','PART-Part-DESC',(#81));
#46=ITEM_DEFINED_TRANSFORMATION('','',#40,#41);
#48=NEXT_ASSEMBLY_USAGE_OCCURRENCE('','','',#39,#49,$);
#49=PRODUCT_DEFINITION('Part','Part',#82,#5);
#50=MANIFOLD_SOLID_BREP('',#83);
#51=PRESENTATION_STYLE_ASSIGNMENT((#84));
#54=LENGTH_MEASURE_WITH_UNIT(LENGTH_MEASURE(1.0),#85);
#57=DIMENSIONAL_EXPONENTS(1.0,0.0,0.0,0.0,0.0,0.0,0.0);
#59=DIMENSIONAL_EXPONENTS(0.0,0.0,0.0,0.0,0.0,0.0,0.0);
#65=PRODUCT_CONTEXT('',#16,'mechanical');
#66=PRODUCT_DEFINITION_FORMATION_WITH_SPECIFIED_SOURCE(' ','NONE',#38,.NOT_KNOWN.);
#67=CARTESIAN_POINT('',(0.0,0.0,0.0));
#68=DIRECTION('',(0.0,0.0,1.0));
#69=DIRECTION('',(1.0,0.0,0.0));
#70=CARTESIAN_POINT('',(0.0,0.0,0.0));
#71=DIRECTION('',(0.0,0.0,1.0));
#72=DIRECTION('',(1.0,0.0,0.0));
#75=UNCERTAINTY_MEASURE_WITH_UNIT(LENGTH_MEASURE(1.0E-06),#77,'','');
#77= (CONVERSION_BASED_UNIT('MILLIMETRE',#88)LENGTH_UNIT()NAMED_UNIT(#91));
#78= (NAMED_UNIT(#93)PLANE_ANGLE_UNIT()SI_UNIT($,.RADIAN.));
#79= (NAMED_UNIT(#93)SOLID_ANGLE_UNIT()SI_UNIT($,.STERADIAN.));
#81=PRODUCT_CONTEXT('',#21,'mechanical');
#82=PRODUCT_DEFINITION_FORMATION_WITH_SPECIFIED_SOURCE(' ','NONE',#43,.NOT_KNOWN.);
#83=CLOSED_SHELL('',(#99,#100,#101,#102,#103,#104,#105,#106,#107,#108,#109,#110,#111,#112,#113,#114,#115,#116,#117,#118,#119,#120,#121,#122,#123,#124,#125,#126,#127,#128,#129,#130,#131,#132,#133,#134,#135,#136,#137,#138,#139,#140,#141,#142,#143,#144,#145,#146,#147,#148,#149,#150,#151,#152,#153,#154));
#84=SURFACE_STYLE_USAGE(.BOTH.,#155);
#85= (NAMED_UNIT(#57)LENGTH_UNIT()SI_UNIT(.MILLI.,.METRE.));
#88=LENGTH_MEASURE_WITH_UNIT(LENGTH_MEASURE(1.0),#157);
#91=DIMENSIONAL_EXPONENTS(1.0,0.0,0.0,0.0,0.0,0.0,0.0);
#93=DIMENSIONAL_EXPONENTS(0.0,0.0,0.0,0.0,0.0,0.0,0.0);
#99=ADVANCED_FACE('',(#158),#159,.F.);
#100=ADVANCED_FACE('',(#160),#161,.F.);
#101=ADVANCED_FACE('',(#162),#163,.F.);
#102=ADVANCED_FACE('',(#164),#165,.F.);
#103=ADVANCED_FACE('',(#166),#167,.F.);
#104=ADVANCED_FACE('',(#168),#169,.F.);
#105=ADVANCED_FACE('',(#170),#171,.F.);
#106=ADVANCED_FACE('',(#172),#173,.F.);
#107=ADVANCED_FACE('',(#174),#175,.T.);
#108=ADVANCED_FACE('',(#176),#177,.T.);
#109=ADVANCED_FACE('',(#178),#179,.T.);
#110=ADVANCED_FACE('',(#180),#181,.T.);
#111=ADVANCED_FACE('',(#182),#183,.T.);
#112=ADVANCED_FACE('',(#184),#185,.T.);
#113=ADVANCED_FACE('',(#186),#187,.T.);
#114=ADVANCED_FACE('',(#188),#189,.T.);
#115=ADVANCED_FACE('',(#190),#191,.T.);
#116=ADVANCED_FACE('',(#192),#193,.T.);
#117=ADVANCED_FACE('',(#194),#195,.T.);
#118=ADVANCED_FACE('',(#196),#197,.T.);
#119=ADVANCED_FACE('',(#198),#199,.T.);
#120=ADVANCED_FACE('',(#200),#201,.T.);
#121=ADVANCED_FACE('',(#202),#203,.T.);
#122=ADVANCED_FACE('',(#204),#205,.T.);
#123=ADVANCED_FACE('',(#206),#207,.T.);
#124=ADVANCED_FACE('',(#208),#209,.F.);
#125=ADVANCED_FACE('',(#210),#211,.F.);
#126=ADVANCED_FACE('',(#212),#213,.F.);
#127=ADVANCED_FACE('',(#214),#215,.F.);
#128=ADVANCED_FACE('',(#216,#217,#218),#219,.T.);
#129=ADVANCED_FACE('',(#220),#221,.F.);
#130=ADVANCED_FACE('',(#222),#223,.T.);
#131=ADVANCED_FACE('',(#224),#225,.F.);
#132=ADVANCED_FACE('',(#226),#227,.T.);
#133=ADVANCED_FACE('',(#228,#229),#230,.T.);
#134=ADVANCED_FACE('',(#231,#232),#233,.F.);
#135=ADVANCED_FACE('',(#234),#235,.F.);
#136=ADVANCED_FACE('',(#236),#237,.T.);
#137=ADVANCED_FACE('',(#238),#239,.F.);
#138=ADVANCED_FACE('',(#240),#241,.T.);
#139=ADVANCED_FACE('',(#242),#243,.F.);
#140=ADVANCED_FACE('',(#244),#245,.T.);
#141=ADVANCED_FACE('',(#246),#247,.F.);
#142=ADVANCED_FACE('',(#248),#249,.T.);
#143=ADVANCED_FACE('',(#250),#251,.F.);
#144=ADVANCED_FACE('',(#252),#253,.F.);
#145=ADVANCED_FACE('',(#254),#255,.F.);
#146=ADVANCED_FACE('',(#256),#257,.F.);
#147=ADVANCED_FACE('',(#258),#259,.F.);
#148=ADVANCED_FACE('',(#260),#261,.F.);
#149=ADVANCED_FACE('',(#262),#263,.F.);
#150=ADVANCED_FACE('',(#264),#265,.F.);
#151=ADVANCED_FACE('',(#266),#267,.F.);
#152=ADVANCED_FACE('',(#268),#269,.F.);
#153=ADVANCED_FACE('',(#270),#271,.F.);
#154=ADVANCED_FACE('',(#272),#273,.F.);
#155=SURFACE_SIDE_STYLE('',(#274));
#157= (NAMED_UNIT(#91)LENGTH_UNIT()SI_UNIT(.MILLI.,.METRE.));
#158=FACE_OUTER_BOUND('',#276,.T.);
#159=CONICAL_SURFACE('',#277,866.025403784439,1.0471975511966);
#160=FACE_OUTER_BOUND('',#278,.T.);
#161=CYLINDRICAL_SURFACE('',#279,2.5);
#162=FACE_OUTER_BOUND('',#280,.T.);
#163=CYLINDRICAL_SURFACE('',#281,2.5);
#164=FACE_OUTER_BOUND('',#282,.T.);
#165=CONICAL_SURFACE('',#283,866.025403784439,1.0471975511966);
#166=FACE_OUTER_BOUND('',#284,.T.);
#167=CONICAL_SURFACE('',#285,866.025403784439,1.0471975511966);
#168=FACE_OUTER_BOUND('',#286,.T.);
#169=CYLINDRICAL_SURFACE('',#287,5.0);
#170=FACE_OUTER_BOUND('',#288,.T.);
#171=CYLINDRICAL_SURFACE('',#289,2.5);
#172=FACE_OUTER_BOUND('',#290,.T.);
#173=CYLINDRICAL_SURFACE('',#291,2.5);
#174=FACE_OUTER_BOUND('',#292,.T.);
#175=TOROIDAL_SURFACE('',#293,4.0,1.0);
#176=FACE_OUTER_BOUND('',#294,.T.);
#177=CYLINDRICAL_SURFACE('',#295,1.0);
#178=FACE_OUTER_BOUND('',#296,.T.);
#179=CYLINDRICAL_SURFACE('',#297,1.0);
#180=FACE_OUTER_BOUND('',#298,.T.);
#181=TOROIDAL_SURFACE('',#299,4.0,1.0);
#182=FACE_OUTER_BOUND('',#300,.T.);
#183=TOROIDAL_SURFACE('',#301,4.0,1.0);
#184=FACE_OUTER_BOUND('',#302,.T.);
#185=CYLINDRICAL_SURFACE('',#303,1.0);
#186=FACE_OUTER_BOUND('',#304,.T.);
#187=CYLINDRICAL_SURFACE('',#305,1.0);
#188=FACE_OUTER_BOUND('',#306,.T.);
#189=TOROIDAL_SURFACE('',#307,4.0,1.0);
#190=FACE_OUTER_BOUND('',#308,.T.);
#191=TOROIDAL_SURFACE('',#309,6.0,1.0);
#192=FACE_OUTER_BOUND('',#310,.T.);
#193=CYLINDRICAL_SURFACE('',#311,1.0);
#194=FACE_OUTER_BOUND('',#312,.T.);
#195=CYLINDRICAL_SURFACE('',#313,1.0);
#196=FACE_OUTER_BOUND('',#314,.T.);
#197=TOROIDAL_SURFACE('',#315,6.0,1.0);
#198=FACE_OUTER_BOUND('',#316,.T.);
#199=TOROIDAL_SURFACE('',#317,6.0,1.0);
#200=FACE_OUTER_BOUND('',#318,.T.);
#201=CYLINDRICAL_SURFACE('',#319,1.0);
#202=FACE_OUTER_BOUND('',#320,.T.);
#203=CYLINDRICAL_SURFACE('',#321,1.0);
#204=FACE_OUTER_BOUND('',#322,.T.);
#205=TOROIDAL_SURFACE('',#323,6.0,1.0);
#206=FACE_OUTER_BOUND('',#324,.T.);
#207=PLANE('',#325);
#208=FACE_OUTER_BOUND('',#326,.T.);
#209=PLANE('',#327);
#210=FACE_OUTER_BOUND('',#328,.T.);
#211=PLANE('',#329);
#212=FACE_OUTER_BOUND('',#330,.T.);
#213=PLANE('',#331);
#214=FACE_OUTER_BOUND('',#332,.T.);
#215=PLANE('',#333);
#216=FACE_OUTER_BOUND('',#334,.T.);
#217=FACE_BOUND('',#335,.T.);
#218=FACE_BOUND('',#336,.T.);
#219=PLANE('',#337);
#220=FACE_OUTER_BOUND('',#338,.T.);
#221=PLANE('',#339);
#222=FACE_OUTER_BOUND('',#340,.T.);
#223=CYLINDRICAL_SURFACE('',#341,12.2);
#224=FACE_OUTER_BOUND('',#342,.T.);
#225=PLANE('',#343);
#226=FACE_OUTER_BOUND('',#344,.T.);
#227=CYLINDRICAL_SURFACE('',#345,12.2);
#228=FACE_OUTER_BOUND('',#346,.T.);
#229=FACE_BOUND('',#347,.T.);
#230=PLANE('',#348);
#231=FACE_OUTER_BOUND('',#349,.T.);
#232=FACE_BOUND('',#350,.T.);
#233=PLANE('',#351);
#234=FACE_OUTER_BOUND('',#352,.T.);
#235=PLANE('',#353);
#236=FACE_OUTER_BOUND('',#354,.T.);
#237=CYLINDRICAL_SURFACE('',#355,5.0);
#238=FACE_OUTER_BOUND('',#356,.T.);
#239=PLANE('',#357);
#240=FACE_OUTER_BOUND('',#358,.T.);
#241=CYLINDRICAL_SURFACE('',#359,5.0);
#242=FACE_OUTER_BOUND('',#360,.T.);
#243=PLANE('',#361);
#244=FACE_OUTER_BOUND('',#362,.T.);
#245=CYLINDRICAL_SURFACE('',#363,5.0);
#246=FACE_OUTER_BOUND('',#364,.T.);
#247=PLANE('',#365);
#248=FACE_OUTER_BOUND('',#366,.T.);
#249=CYLINDRICAL_SURFACE('',#367,5.0);
#250=FACE_OUTER_BOUND('',#368,.T.);
#251=CYLINDRICAL_SURFACE('',#369,5.0);
#252=FACE_OUTER_BOUND('',#370,.T.);
#253=CYLINDRICAL_SURFACE('',#371,5.0);
#254=FACE_OUTER_BOUND('',#372,.T.);
#255=CYLINDRICAL_SURFACE('',#373,5.0);
#256=FACE_OUTER_BOUND('',#374,.T.);
#257=TOROIDAL_SURFACE('',#375,3.0,2.0);
#258=FACE_OUTER_BOUND('',#376,.T.);
#259=CYLINDRICAL_SURFACE('',#377,2.0);
#260=FACE_OUTER_BOUND('',#378,.T.);
#261=CYLINDRICAL_SURFACE('',#379,2.0);
#262=FACE_OUTER_BOUND('',#380,.T.);
#263=TOROIDAL_SURFACE('',#381,3.0,2.0);
#264=FACE_OUTER_BOUND('',#382,.T.);
#265=TOROIDAL_SURFACE('',#383,3.0,2.0);
#266=FACE_OUTER_BOUND('',#384,.T.);
#267=CYLINDRICAL_SURFACE('',#385,2.0);
#268=FACE_OUTER_BOUND('',#386,.T.);
#269=CYLINDRICAL_SURFACE('',#387,2.0);
#270=FACE_OUTER_BOUND('',#388,.T.);
#271=TOROIDAL_SURFACE('',#389,3.0,2.0);
#272=FACE_OUTER_BOUND('',#390,.T.);
#273=CONICAL_SURFACE('',#391,866.025403784439,1.0471975511966);
#274=SURFACE_STYLE_FILL_AREA(#392);
#276=EDGE_LOOP('',(#393,#394,#395));
#277=AXIS2_PLACEMENT_3D('',#396,#397,#398);
#278=EDGE_LOOP('',(#399,#400,#401,#402));
#279=AXIS2_PLACEMENT_3D('',#403,#404,#405);
#280=EDGE_LOOP('',(#406,#407,#408,#409));
#281=AXIS2_PLACEMENT_3D('',#410,#411,#412);
#282=EDGE_LOOP('',(#413,#414,#415));
#283=AXIS2_PLACEMENT_3D('',#416,#417,#418);
#284=EDGE_LOOP('',(#419,#420,#421));
#285=AXIS2_PLACEMENT_3D('',#422,#423,#424);
#286=EDGE_LOOP('',(#425,#426,#427,#428));
#287=AXIS2_PLACEMENT_3D('',#429,#430,#431);
#288=EDGE_LOOP('',(#432,#433,#434,#435));
#289=AXIS2_PLACEMENT_3D('',#436,#437,#438);
#290=EDGE_LOOP('',(#439,#440,#441,#442));
#291=AXIS2_PLACEMENT_3D('',#443,#444,#445);
#292=EDGE_LOOP('',(#446,#447,#448,#449));
#293=AXIS2_PLACEMENT_3D('',#450,#451,#452);
#294=EDGE_LOOP('',(#453,#454,#455,#456));
#295=AXIS2_PLACEMENT_3D('',#457,#458,#459);
#296=EDGE_LOOP('',(#460,#461,#462,#463));
#297=AXIS2_PLACEMENT_3D('',#464,#465,#466);
#298=EDGE_LOOP('',(#467,#468,#469,#470));
#299=AXIS2_PLACEMENT_3D('',#471,#472,#473);
#300=EDGE_LOOP('',(#474,#475,#476,#477));
#301=AXIS2_PLACEMENT_3D('',#478,#479,#480);
#302=EDGE_LOOP('',(#481,#482,#483,#484));
#303=AXIS2_PLACEMENT_3D('',#485,#486,#487);
#304=EDGE_LOOP('',(#488,#489,#490,#491));
#305=AXIS2_PLACEMENT_3D('',#492,#493,#494);
#306=EDGE_LOOP('',(#495,#496,#497,#498));
#307=AXIS2_PLACEMENT_3D('',#499,#500,#501);
#308=EDGE_LOOP('',(#502,#503,#504,#505));
#309=AXIS2_PLACEMENT_3D('',#506,#507,#508);
#310=EDGE_LOOP('',(#509,#510,#511,#512));
#311=AXIS2_PLACEMENT_3D('',#513,#514,#515);
#312=EDGE_LOOP('',(#516,#517,#518,#519));
#313=AXIS2_PLACEMENT_3D('',#520,#521,#522);
#314=EDGE_LOOP('',(#523,#524,#525,#526));
#315=AXIS2_PLACEMENT_3D('',#527,#528,#529);
#316=EDGE_LOOP('',(#530,#531,#532,#533));
#317=AXIS2_PLACEMENT_3D('',#534,#535,#536);
#318=EDGE_LOOP('',(#537,#538,#539,#540));
#319=AXIS2_PLACEMENT_3D('',#541,#542,#543);
#320=EDGE_LOOP('',(#544,#545,#546,#547));
#321=AXIS2_PLACEMENT_3D('',#548,#549,#550);
#322=EDGE_LOOP('',(#551,#552,#553,#554));
#323=AXIS2_PLACEMENT_3D('',#555,#556,#557);
#324=EDGE_LOOP('',(#558,#559,#560,#561,#562,#563,#564,#565));
#325=AXIS2_PLACEMENT_3D('',#566,#567,#568);
#326=EDGE_LOOP('',(#569,#570,#571,#572));
#327=AXIS2_PLACEMENT_3D('',#573,#574,#575);
#328=EDGE_LOOP('',(#576,#577,#578,#579));
#329=AXIS2_PLACEMENT_3D('',#580,#581,#582);
#330=EDGE_LOOP('',(#583,#584,#585,#586));
#331=AXIS2_PLACEMENT_3D('',#587,#588,#589);
#332=EDGE_LOOP('',(#590,#591,#592,#593));
#333=AXIS2_PLACEMENT_3D('',#594,#595,#596);
#334=EDGE_LOOP('',(#597,#598,#599,#600));
#335=EDGE_LOOP('',(#601,#602));
#336=EDGE_LOOP('',(#603,#604));
#337=AXIS2_PLACEMENT_3D('',#605,#606,#607);
#338=EDGE_LOOP('',(#608,#609,#610,#611));
#339=AXIS2_PLACEMENT_3D('',#612,#613,#614);
#340=EDGE_LOOP('',(#615,#616,#617,#618));
#341=AXIS2_PLACEMENT_3D('',#619,#620,#621);
#342=EDGE_LOOP('',(#622,#623,#624,#625));
#343=AXIS2_PLACEMENT_3D('',#626,#627,#628);
#344=EDGE_LOOP('',(#629,#630,#631,#632));
#345=AXIS2_PLACEMENT_3D('',#633,#634,#635);
#346=EDGE_LOOP('',(#636,#637,#638,#639,#640,#641,#642,#643));
#347=EDGE_LOOP('',(#644,#645,#646,#647,#648,#649,#650,#651));
#348=AXIS2_PLACEMENT_3D('',#652,#653,#654);
#349=EDGE_LOOP('',(#655,#656,#657,#658,#659,#660,#661,#662));
#350=EDGE_LOOP('',(#663,#664,#665,#666));
#351=AXIS2_PLACEMENT_3D('',#667,#668,#669);
#352=EDGE_LOOP('',(#670,#671,#672,#673));
#353=AXIS2_PLACEMENT_3D('',#674,#675,#676);
#354=EDGE_LOOP('',(#677,#678,#679,#680));
#355=AXIS2_PLACEMENT_3D('',#681,#682,#683);
#356=EDGE_LOOP('',(#684,#685,#686,#687));
#357=AXIS2_PLACEMENT_3D('',#688,#689,#690);
#358=EDGE_LOOP('',(#691,#692,#693,#694));
#359=AXIS2_PLACEMENT_3D('',#695,#696,#697);
#360=EDGE_LOOP('',(#698,#699,#700,#701));
#361=AXIS2_PLACEMENT_3D('',#702,#703,#704);
#362=EDGE_LOOP('',(#705,#706,#707,#708));
#363=AXIS2_PLACEMENT_3D('',#709,#710,#711);
#364=EDGE_LOOP('',(#712,#713,#714,#715));
#365=AXIS2_PLACEMENT_3D('',#716,#717,#718);
#366=EDGE_LOOP('',(#719,#720,#721,#722));
#367=AXIS2_PLACEMENT_3D('',#723,#724,#725);
#368=EDGE_LOOP('',(#726,#727,#728,#729));
#369=AXIS2_PLACEMENT_3D('',#730,#731,#732);
#370=EDGE_LOOP('',(#733,#734,#735,#736));
#371=AXIS2_PLACEMENT_3D('',#737,#738,#739);
#372=EDGE_LOOP('',(#740,#741,#742,#743));
#373=AXIS2_PLACEMENT_3D('',#744,#745,#746);
#374=EDGE_LOOP('',(#747,#748,#749,#750));
#375=AXIS2_PLACEMENT_3D('',#751,#752,#753);
#376=EDGE_LOOP('',(#754,#755,#756,#757));
#377=AXIS2_PLACEMENT_3D('',#758,#759,#760);
#378=EDGE_LOOP('',(#761,#762,#763,#764));
#379=AXIS2_PLACEMENT_3D('',#765,#766,#767);
#380=EDGE_LOOP('',(#768,#769,#770,#771));
#381=AXIS2_PLACEMENT_3D('',#772,#773,#774);
#382=EDGE_LOOP('',(#775,#776,#777,#778));
#383=AXIS2_PLACEMENT_3D('',#779,#780,#781);
#384=EDGE_LOOP('',(#782,#783,#784,#785));
#385=AXIS2_PLACEMENT_3D('',#786,#787,#788);
#386=EDGE_LOOP('',(#789,#790,#791,#792));
#387=AXIS2_PLACEMENT_3D('',#793,#794,#795);
#388=EDGE_LOOP('',(#796,#797,#798,#799));
#389=AXIS2_PLACEMENT_3D('',#800,#801,#802);
#390=EDGE_LOOP('',(#803,#804,#805));
#391=AXIS2_PLACEMENT_3D('',#806,#807,#808);
#392=FILL_AREA_STYLE('',(#809));
#393=ORIENTED_EDGE('',*,*,#810,.F.);
#394=ORIENTED_EDGE('',*,*,#811,.F.);
#395=ORIENTED_EDGE('',*,*,#812,.F.);
#396=CARTESIAN_POINT('',(-7.105427357601E-15,87.5,-499.056624327026));
#397=DIRECTION('',(-0.0,0.0,-1.0));
#398=DIRECTION('',(-1.0,0.0,0.0));
#399=ORIENTED_EDGE('',*,*,#813,.F.);
#400=ORIENTED_EDGE('',*,*,#814,.T.);
#401=ORIENTED_EDGE('',*,*,#815,.F.);
#402=ORIENTED_EDGE('',*,*,#812,.T.);
#403=CARTESIAN_POINT('',(-7.105427357601E-15,87.5,-0.5));
#404=DIRECTION('',(0.0,0.0,-1.0));
#405=DIRECTION('',(-1.0,0.0,0.0));
#406=ORIENTED_EDGE('',*,*,#816,.F.);
#407=ORIENTED_EDGE('',*,*,#817,.T.);
#408=ORIENTED_EDGE('',*,*,#818,.F.);
#409=ORIENTED_EDGE('',*,*,#819,.T.);
#410=CARTESIAN_POINT('',(-7.105427357601E-15,7.5,-0.5));
#411=DIRECTION('',(0.0,0.0,-1.0));
#412=DIRECTION('',(-1.0,0.0,0.0));
#413=ORIENTED_EDGE('',*,*,#820,.F.);
#414=ORIENTED_EDGE('',*,*,#821,.F.);
#415=ORIENTED_EDGE('',*,*,#819,.F.);
#416=CARTESIAN_POINT('',(-7.105427357601E-15,7.5,-499.056624327026));
#417=DIRECTION('',(-0.0,0.0,-1.0));
#418=DIRECTION('',(-1.0,0.0,0.0));
#419=ORIENTED_EDGE('',*,*,#820,.T.);
#420=ORIENTED_EDGE('',*,*,#822,.F.);
#421=ORIENTED_EDGE('',*,*,#821,.T.);
#422=CARTESIAN_POINT('',(-7.105427357601E-15,7.5,-499.056624327026));
#423=DIRECTION('',(-0.0,0.0,-1.0));
#424=DIRECTION('',(-1.0,0.0,0.0));
#425=ORIENTED_EDGE('',*,*,#823,.F.);
#426=ORIENTED_EDGE('',*,*,#824,.T.);
#427=ORIENTED_EDGE('',*,*,#825,.F.);
#428=ORIENTED_EDGE('',*,*,#826,.T.);
#429=CARTESIAN_POINT('',(-5.10000000000001,78.1,-10.5));
#430=DIRECTION('',(0.0,0.0,-1.0));
#431=DIRECTION('',(-1.0,0.0,0.0));
#432=ORIENTED_EDGE('',*,*,#816,.T.);
#433=ORIENTED_EDGE('',*,*,#822,.T.);
#434=ORIENTED_EDGE('',*,*,#818,.T.);
#435=ORIENTED_EDGE('',*,*,#827,.T.);
#436=CARTESIAN_POINT('',(-7.105427357601E-15,7.5,-0.5));
#437=DIRECTION('',(0.0,0.0,-1.0));
#438=DIRECTION('',(-1.0,0.0,0.0));
#439=ORIENTED_EDGE('',*,*,#813,.T.);
#440=ORIENTED_EDGE('',*,*,#828,.T.);
#441=ORIENTED_EDGE('',*,*,#815,.T.);
#442=ORIENTED_EDGE('',*,*,#829,.T.);
#443=CARTESIAN_POINT('',(-7.105427357601E-15,87.5,-0.5));
#444=DIRECTION('',(0.0,0.0,-1.0));
#445=DIRECTION('',(-1.0,0.0,0.0));
#446=ORIENTED_EDGE('',*,*,#830,.T.);
#447=ORIENTED_EDGE('',*,*,#831,.F.);
#448=ORIENTED_EDGE('',*,*,#832,.T.);
#449=ORIENTED_EDGE('',*,*,#833,.F.);
#450=CARTESIAN_POINT('',(-12.0,97.5,1.5));
#451=DIRECTION('',(0.0,0.0,1.0));
#452=DIRECTION('',(1.0,0.0,0.0));
#453=ORIENTED_EDGE('',*,*,#834,.T.);
#454=ORIENTED_EDGE('',*,*,#835,.F.);
#455=ORIENTED_EDGE('',*,*,#832,.F.);
#456=ORIENTED_EDGE('',*,*,#836,.F.);
#457=CARTESIAN_POINT('',(-16.0,97.5,1.5));
#458=DIRECTION('',(-6.12303176911189E-17,1.0,0.0));
#459=DIRECTION('',(-1.0,-6.12303176911189E-17,0.0));
#460=ORIENTED_EDGE('',*,*,#837,.T.);
#461=ORIENTED_EDGE('',*,*,#838,.F.);
#462=ORIENTED_EDGE('',*,*,#830,.F.);
#463=ORIENTED_EDGE('',*,*,#839,.F.);
#464=CARTESIAN_POINT('',(-12.0,101.5,1.5));
#465=DIRECTION('',(1.0,-1.22460635382238E-16,0.0));
#466=DIRECTION('',(1.22460635382238E-16,1.0,0.0));
#467=ORIENTED_EDGE('',*,*,#840,.T.);
#468=ORIENTED_EDGE('',*,*,#841,.F.);
#469=ORIENTED_EDGE('',*,*,#834,.F.);
#470=ORIENTED_EDGE('',*,*,#842,.F.);
#471=CARTESIAN_POINT('',(-12.0,-52.5,1.5));
#472=DIRECTION('',(0.0,0.0,1.0));
#473=DIRECTION('',(1.0,0.0,0.0));
#474=ORIENTED_EDGE('',*,*,#843,.T.);
#475=ORIENTED_EDGE('',*,*,#844,.F.);
#476=ORIENTED_EDGE('',*,*,#837,.F.);
#477=ORIENTED_EDGE('',*,*,#845,.F.);
#478=CARTESIAN_POINT('',(12.0,97.5,1.5));
#479=DIRECTION('',(0.0,0.0,1.0));
#480=DIRECTION('',(1.0,0.0,0.0));
#481=ORIENTED_EDGE('',*,*,#846,.T.);
#482=ORIENTED_EDGE('',*,*,#847,.F.);
#483=ORIENTED_EDGE('',*,*,#840,.F.);
#484=ORIENTED_EDGE('',*,*,#848,.F.);
#485=CARTESIAN_POINT('',(-12.0,-56.5,1.5));
#486=DIRECTION('',(-1.0,0.0,0.0));
#487=DIRECTION('',(0.0,0.0,1.0));
#488=ORIENTED_EDGE('',*,*,#849,.T.);
#489=ORIENTED_EDGE('',*,*,#850,.F.);
#490=ORIENTED_EDGE('',*,*,#843,.F.);
#491=ORIENTED_EDGE('',*,*,#851,.F.);
#492=CARTESIAN_POINT('',(16.0,97.5,1.5));
#493=DIRECTION('',(-6.12303176911189E-17,-1.0,0.0));
#494=DIRECTION('',(1.0,-6.12303176911189E-17,0.0));
#495=ORIENTED_EDGE('',*,*,#846,.F.);
#496=ORIENTED_EDGE('',*,*,#852,.F.);
#497=ORIENTED_EDGE('',*,*,#849,.F.);
#498=ORIENTED_EDGE('',*,*,#853,.F.);
#499=CARTESIAN_POINT('',(12.0,-52.5,1.5));
#500=DIRECTION('',(0.0,0.0,1.0));
#501=DIRECTION('',(1.0,0.0,0.0));
#502=ORIENTED_EDGE('',*,*,#854,.T.);
#503=ORIENTED_EDGE('',*,*,#824,.F.);
#504=ORIENTED_EDGE('',*,*,#855,.T.);
#505=ORIENTED_EDGE('',*,*,#856,.F.);
#506=CARTESIAN_POINT('',(-5.10000000000001,78.1,1.5));
#507=DIRECTION('',(0.0,0.0,1.0));
#508=DIRECTION('',(1.0,0.0,0.0));
#509=ORIENTED_EDGE('',*,*,#857,.T.);
#510=ORIENTED_EDGE('',*,*,#858,.F.);
#511=ORIENTED_EDGE('',*,*,#855,.F.);
#512=ORIENTED_EDGE('',*,*,#859,.F.);
#513=CARTESIAN_POINT('',(-7.2279239271916E-15,84.1,1.5));
#514=DIRECTION('',(1.0,1.22460635382238E-16,0.0));
#515=DIRECTION('',(-1.22460635382238E-16,1.0,0.0));
#516=ORIENTED_EDGE('',*,*,#860,.T.);
#517=ORIENTED_EDGE('',*,*,#861,.F.);
#518=ORIENTED_EDGE('',*,*,#854,.F.);
#519=ORIENTED_EDGE('',*,*,#862,.F.);
#520=CARTESIAN_POINT('',(-11.1,47.5,1.5));
#521=DIRECTION('',(-6.12303176911189E-17,1.0,0.0));
#522=DIRECTION('',(-1.0,-6.12303176911189E-17,0.0));
#523=ORIENTED_EDGE('',*,*,#863,.T.);
#524=ORIENTED_EDGE('',*,*,#864,.F.);
#525=ORIENTED_EDGE('',*,*,#857,.F.);
#526=ORIENTED_EDGE('',*,*,#865,.F.);
#527=CARTESIAN_POINT('',(5.09999999999999,78.1,1.5));
#528=DIRECTION('',(0.0,0.0,1.0));
#529=DIRECTION('',(1.0,0.0,0.0));
#530=ORIENTED_EDGE('',*,*,#866,.T.);
#531=ORIENTED_EDGE('',*,*,#867,.F.);
#532=ORIENTED_EDGE('',*,*,#860,.F.);
#533=ORIENTED_EDGE('',*,*,#868,.F.);
#534=CARTESIAN_POINT('',(-5.10000000000001,16.9,1.5));
#535=DIRECTION('',(0.0,0.0,1.0));
#536=DIRECTION('',(1.0,0.0,0.0));
#537=ORIENTED_EDGE('',*,*,#869,.T.);
#538=ORIENTED_EDGE('',*,*,#870,.F.);
#539=ORIENTED_EDGE('',*,*,#863,.F.);
#540=ORIENTED_EDGE('',*,*,#871,.F.);
#541=CARTESIAN_POINT('',(11.1,47.5,1.5));
#542=DIRECTION('',(-6.12303176911189E-17,-1.0,0.0));
#543=DIRECTION('',(1.0,-6.12303176911189E-17,0.0));
#544=ORIENTED_EDGE('',*,*,#872,.T.);
#545=ORIENTED_EDGE('',*,*,#873,.F.);
#546=ORIENTED_EDGE('',*,*,#866,.F.);
#547=ORIENTED_EDGE('',*,*,#874,.F.);
#548=CARTESIAN_POINT('',(-7.10546329180936E-15,10.9,1.5));
#549=DIRECTION('',(-1.0,0.0,0.0));
#550=DIRECTION('',(0.0,0.0,1.0));
#551=ORIENTED_EDGE('',*,*,#869,.F.);
#552=ORIENTED_EDGE('',*,*,#875,.F.);
#553=ORIENTED_EDGE('',*,*,#872,.F.);
#554=ORIENTED_EDGE('',*,*,#876,.F.);
#555=CARTESIAN_POINT('',(5.09999999999999,16.9,1.5));
#556=DIRECTION('',(0.0,0.0,1.0));
#557=DIRECTION('',(1.0,0.0,0.0));
#558=ORIENTED_EDGE('',*,*,#877,.T.);
#559=ORIENTED_EDGE('',*,*,#878,.T.);
#560=ORIENTED_EDGE('',*,*,#879,.T.);
#561=ORIENTED_EDGE('',*,*,#880,.T.);
#562=ORIENTED_EDGE('',*,*,#881,.T.);
#563=ORIENTED_EDGE('',*,*,#882,.T.);
#564=ORIENTED_EDGE('',*,*,#883,.T.);
#565=ORIENTED_EDGE('',*,*,#884,.T.);
#566=CARTESIAN_POINT('',(-7.105427357601E-15,22.5,-10.5));
#567=DIRECTION('',(0.0,0.0,1.0));
#568=DIRECTION('',(1.0,0.0,0.0));
#569=ORIENTED_EDGE('',*,*,#885,.T.);
#570=ORIENTED_EDGE('',*,*,#871,.T.);
#571=ORIENTED_EDGE('',*,*,#886,.T.);
#572=ORIENTED_EDGE('',*,*,#887,.T.);
#573=CARTESIAN_POINT('',(10.1,47.5,-10.5));
#574=DIRECTION('',(1.0,-6.12303176911189E-17,0.0));
#575=DIRECTION('',(6.12303176911189E-17,1.0,0.0));
#576=ORIENTED_EDGE('',*,*,#888,.T.);
#577=ORIENTED_EDGE('',*,*,#873,.T.);
#578=ORIENTED_EDGE('',*,*,#889,.T.);
#579=ORIENTED_EDGE('',*,*,#890,.T.);
#580=CARTESIAN_POINT('',(-7.10546329180936E-15,11.9,-10.5));
#581=DIRECTION('',(0.0,-1.0,0.0));
#582=DIRECTION('',(1.0,0.0,0.0));
#583=ORIENTED_EDGE('',*,*,#825,.T.);
#584=ORIENTED_EDGE('',*,*,#861,.T.);
#585=ORIENTED_EDGE('',*,*,#891,.T.);
#586=ORIENTED_EDGE('',*,*,#892,.T.);
#587=CARTESIAN_POINT('',(-10.1,47.5,-10.5));
#588=DIRECTION('',(-1.0,-6.12303176911189E-17,0.0));
#589=DIRECTION('',(6.12303176911189E-17,-1.0,0.0));
#590=ORIENTED_EDGE('',*,*,#893,.T.);
#591=ORIENTED_EDGE('',*,*,#859,.T.);
#592=ORIENTED_EDGE('',*,*,#823,.T.);
#593=ORIENTED_EDGE('',*,*,#894,.T.);
#594=CARTESIAN_POINT('',(-7.10546329180936E-15,83.1,-10.5));
#595=DIRECTION('',(-1.22460635382238E-16,1.0,0.0));
#596=DIRECTION('',(-1.0,-1.22460635382238E-16,0.0));
#597=ORIENTED_EDGE('',*,*,#895,.T.);
#598=ORIENTED_EDGE('',*,*,#896,.T.);
#599=ORIENTED_EDGE('',*,*,#897,.T.);
#600=ORIENTED_EDGE('',*,*,#898,.T.);
#601=ORIENTED_EDGE('',*,*,#817,.F.);
#602=ORIENTED_EDGE('',*,*,#827,.F.);
#603=ORIENTED_EDGE('',*,*,#814,.F.);
#604=ORIENTED_EDGE('',*,*,#829,.F.);
#605=CARTESIAN_POINT('',(-7.11234333718732E-15,12.2,-12.5));
#606=DIRECTION('',(0.0,0.0,-1.0));
#607=DIRECTION('',(-1.0,0.0,0.0));
#608=ORIENTED_EDGE('',*,*,#899,.T.);
#609=ORIENTED_EDGE('',*,*,#900,.F.);
#610=ORIENTED_EDGE('',*,*,#898,.F.);
#611=ORIENTED_EDGE('',*,*,#901,.T.);
#612=CARTESIAN_POINT('',(12.2,47.5,-12.5));
#613=DIRECTION('',(-1.0,6.12303176911189E-17,0.0));
#614=DIRECTION('',(-6.12303176911189E-17,-1.0,0.0));
#615=ORIENTED_EDGE('',*,*,#902,.T.);
#616=ORIENTED_EDGE('',*,*,#901,.F.);
#617=ORIENTED_EDGE('',*,*,#897,.F.);
#618=ORIENTED_EDGE('',*,*,#903,.T.);
#619=CARTESIAN_POINT('',(-7.29874988705682E-15,82.8,-12.5));
#620=DIRECTION('',(0.0,0.0,1.0));
#621=DIRECTION('',(-1.0,0.0,0.0));
#622=ORIENTED_EDGE('',*,*,#904,.T.);
#623=ORIENTED_EDGE('',*,*,#903,.F.);
#624=ORIENTED_EDGE('',*,*,#896,.F.);
#625=ORIENTED_EDGE('',*,*,#905,.T.);
#626=CARTESIAN_POINT('',(-12.2,47.5,-12.5));
#627=DIRECTION('',(1.0,6.12303176911189E-17,0.0));
#628=DIRECTION('',(-6.12303176911189E-17,1.0,0.0));
#629=ORIENTED_EDGE('',*,*,#906,.T.);
#630=ORIENTED_EDGE('',*,*,#905,.F.);
#631=ORIENTED_EDGE('',*,*,#895,.F.);
#632=ORIENTED_EDGE('',*,*,#900,.T.);
#633=CARTESIAN_POINT('',(-7.11234333718732E-15,12.2,-12.5));
#634=DIRECTION('',(0.0,0.0,1.0));
#635=DIRECTION('',(-1.0,0.0,0.0));
#636=ORIENTED_EDGE('',*,*,#839,.T.);
#637=ORIENTED_EDGE('',*,*,#833,.T.);
#638=ORIENTED_EDGE('',*,*,#835,.T.);
#639=ORIENTED_EDGE('',*,*,#841,.T.);
#640=ORIENTED_EDGE('',*,*,#847,.T.);
#641=ORIENTED_EDGE('',*,*,#853,.T.);
#642=ORIENTED_EDGE('',*,*,#851,.T.);
#643=ORIENTED_EDGE('',*,*,#845,.T.);
#644=ORIENTED_EDGE('',*,*,#862,.T.);
#645=ORIENTED_EDGE('',*,*,#856,.T.);
#646=ORIENTED_EDGE('',*,*,#858,.T.);
#647=ORIENTED_EDGE('',*,*,#864,.T.);
#648=ORIENTED_EDGE('',*,*,#870,.T.);
#649=ORIENTED_EDGE('',*,*,#876,.T.);
#650=ORIENTED_EDGE('',*,*,#874,.T.);
#651=ORIENTED_EDGE('',*,*,#868,.T.);
#652=CARTESIAN_POINT('',(-12.0,97.5,2.5));
#653=DIRECTION('',(0.0,0.0,1.0));
#654=DIRECTION('',(1.0,0.0,0.0));
#655=ORIENTED_EDGE('',*,*,#907,.F.);
#656=ORIENTED_EDGE('',*,*,#908,.F.);
#657=ORIENTED_EDGE('',*,*,#909,.F.);
#658=ORIENTED_EDGE('',*,*,#910,.F.);
#659=ORIENTED_EDGE('',*,*,#911,.F.);
#660=ORIENTED_EDGE('',*,*,#912,.F.);
#661=ORIENTED_EDGE('',*,*,#913,.F.);
#662=ORIENTED_EDGE('',*,*,#914,.F.);
#663=ORIENTED_EDGE('',*,*,#906,.F.);
#664=ORIENTED_EDGE('',*,*,#899,.F.);
#665=ORIENTED_EDGE('',*,*,#902,.F.);
#666=ORIENTED_EDGE('',*,*,#904,.F.);
#667=CARTESIAN_POINT('',(-12.0,97.5,0.0));
#668=DIRECTION('',(0.0,0.0,1.0));
#669=DIRECTION('',(1.0,0.0,0.0));
#670=ORIENTED_EDGE('',*,*,#915,.F.);
#671=ORIENTED_EDGE('',*,*,#838,.T.);
#672=ORIENTED_EDGE('',*,*,#916,.T.);
#673=ORIENTED_EDGE('',*,*,#908,.T.);
#674=CARTESIAN_POINT('',(-7.33672382106458E-15,102.5,2.5));
#675=DIRECTION('',(-1.22460635382238E-16,-1.0,0.0));
#676=DIRECTION('',(-1.0,1.22460635382238E-16,0.0));
#677=ORIENTED_EDGE('',*,*,#916,.F.);
#678=ORIENTED_EDGE('',*,*,#844,.T.);
#679=ORIENTED_EDGE('',*,*,#917,.T.);
#680=ORIENTED_EDGE('',*,*,#909,.T.);
#681=CARTESIAN_POINT('',(12.0,97.5,2.5));
#682=DIRECTION('',(0.0,0.0,-1.0));
#683=DIRECTION('',(1.0,0.0,0.0));
#684=ORIENTED_EDGE('',*,*,#917,.F.);
#685=ORIENTED_EDGE('',*,*,#850,.T.);
#686=ORIENTED_EDGE('',*,*,#918,.T.);
#687=ORIENTED_EDGE('',*,*,#910,.T.);
#688=CARTESIAN_POINT('',(17.0,22.5,2.5));
#689=DIRECTION('',(-1.0,6.12303176911189E-17,0.0));
#690=DIRECTION('',(6.12303176911189E-17,1.0,0.0));
#691=ORIENTED_EDGE('',*,*,#918,.F.);
#692=ORIENTED_EDGE('',*,*,#852,.T.);
#693=ORIENTED_EDGE('',*,*,#919,.T.);
#694=ORIENTED_EDGE('',*,*,#911,.T.);
#695=CARTESIAN_POINT('',(12.0,-52.5,2.5));
#696=DIRECTION('',(0.0,0.0,-1.0));
#697=DIRECTION('',(1.0,0.0,0.0));
#698=ORIENTED_EDGE('',*,*,#919,.F.);
#699=ORIENTED_EDGE('',*,*,#848,.T.);
#700=ORIENTED_EDGE('',*,*,#920,.T.);
#701=ORIENTED_EDGE('',*,*,#912,.T.);
#702=CARTESIAN_POINT('',(-6.21408026427239E-15,-57.5,2.5));
#703=DIRECTION('',(-0.0,1.0,0.0));
#704=DIRECTION('',(1.0,0.0,0.0));
#705=ORIENTED_EDGE('',*,*,#920,.F.);
#706=ORIENTED_EDGE('',*,*,#842,.T.);
#707=ORIENTED_EDGE('',*,*,#921,.T.);
#708=ORIENTED_EDGE('',*,*,#913,.T.);
#709=CARTESIAN_POINT('',(-12.0,-52.5,2.5));
#710=DIRECTION('',(0.0,0.0,-1.0));
#711=DIRECTION('',(1.0,0.0,0.0));
#712=ORIENTED_EDGE('',*,*,#921,.F.);
#713=ORIENTED_EDGE('',*,*,#836,.T.);
#714=ORIENTED_EDGE('',*,*,#922,.T.);
#715=ORIENTED_EDGE('',*,*,#914,.T.);
#716=CARTESIAN_POINT('',(-17.0,22.5,2.5));
#717=DIRECTION('',(1.0,6.12303176911189E-17,0.0));
#718=DIRECTION('',(6.12303176911189E-17,-1.0,0.0));
#719=ORIENTED_EDGE('',*,*,#922,.F.);
#720=ORIENTED_EDGE('',*,*,#831,.T.);
#721=ORIENTED_EDGE('',*,*,#915,.T.);
#722=ORIENTED_EDGE('',*,*,#907,.T.);
#723=CARTESIAN_POINT('',(-12.0,97.5,2.5));
#724=DIRECTION('',(0.0,0.0,-1.0));
#725=DIRECTION('',(1.0,0.0,0.0));
#726=ORIENTED_EDGE('',*,*,#886,.F.);
#727=ORIENTED_EDGE('',*,*,#865,.T.);
#728=ORIENTED_EDGE('',*,*,#893,.F.);
#729=ORIENTED_EDGE('',*,*,#923,.T.);
#730=CARTESIAN_POINT('',(5.09999999999999,78.1,-10.5));
#731=DIRECTION('',(0.0,0.0,-1.0));
#732=DIRECTION('',(-1.0,0.0,0.0));
#733=ORIENTED_EDGE('',*,*,#891,.F.);
#734=ORIENTED_EDGE('',*,*,#867,.T.);
#735=ORIENTED_EDGE('',*,*,#888,.F.);
#736=ORIENTED_EDGE('',*,*,#924,.T.);
#737=CARTESIAN_POINT('',(-5.10000000000001,16.9,-10.5));
#738=DIRECTION('',(0.0,0.0,-1.0));
#739=DIRECTION('',(-1.0,0.0,0.0));
#740=ORIENTED_EDGE('',*,*,#889,.F.);
#741=ORIENTED_EDGE('',*,*,#875,.T.);
#742=ORIENTED_EDGE('',*,*,#885,.F.);
#743=ORIENTED_EDGE('',*,*,#925,.T.);
#744=CARTESIAN_POINT('',(5.09999999999999,16.9,-10.5));
#745=DIRECTION('',(0.0,0.0,-1.0));
#746=DIRECTION('',(-1.0,0.0,0.0));
#747=ORIENTED_EDGE('',*,*,#926,.T.);
#748=ORIENTED_EDGE('',*,*,#924,.F.);
#749=ORIENTED_EDGE('',*,*,#927,.T.);
#750=ORIENTED_EDGE('',*,*,#878,.F.);
#751=CARTESIAN_POINT('',(-5.10000000000001,16.9,-8.5));
#752=DIRECTION('',(0.0,0.0,1.0));
#753=DIRECTION('',(1.0,0.0,0.0));
#754=ORIENTED_EDGE('',*,*,#928,.T.);
#755=ORIENTED_EDGE('',*,*,#879,.F.);
#756=ORIENTED_EDGE('',*,*,#927,.F.);
#757=ORIENTED_EDGE('',*,*,#890,.F.);
#758=CARTESIAN_POINT('',(-7.105427357601E-15,13.9,-8.5));
#759=DIRECTION('',(1.0,0.0,0.0));
#760=DIRECTION('',(0.0,0.0,-1.0));
#761=ORIENTED_EDGE('',*,*,#929,.T.);
#762=ORIENTED_EDGE('',*,*,#892,.F.);
#763=ORIENTED_EDGE('',*,*,#926,.F.);
#764=ORIENTED_EDGE('',*,*,#877,.F.);
#765=CARTESIAN_POINT('',(-8.10000000000001,22.5,-8.5));
#766=DIRECTION('',(6.12303176911189E-17,-1.0,0.0));
#767=DIRECTION('',(1.0,6.12303176911189E-17,0.0));
#768=ORIENTED_EDGE('',*,*,#930,.T.);
#769=ORIENTED_EDGE('',*,*,#880,.F.);
#770=ORIENTED_EDGE('',*,*,#928,.F.);
#771=ORIENTED_EDGE('',*,*,#925,.F.);
#772=CARTESIAN_POINT('',(5.09999999999999,16.9,-8.5));
#773=DIRECTION('',(0.0,0.0,1.0));
#774=DIRECTION('',(1.0,0.0,0.0));
#775=ORIENTED_EDGE('',*,*,#931,.T.);
#776=ORIENTED_EDGE('',*,*,#826,.F.);
#777=ORIENTED_EDGE('',*,*,#929,.F.);
#778=ORIENTED_EDGE('',*,*,#884,.F.);
#779=CARTESIAN_POINT('',(-5.10000000000001,78.1,-8.5));
#780=DIRECTION('',(0.0,0.0,1.0));
#781=DIRECTION('',(1.0,0.0,0.0));
#782=ORIENTED_EDGE('',*,*,#932,.T.);
#783=ORIENTED_EDGE('',*,*,#881,.F.);
#784=ORIENTED_EDGE('',*,*,#930,.F.);
#785=ORIENTED_EDGE('',*,*,#887,.F.);
#786=CARTESIAN_POINT('',(8.09999999999999,22.5,-8.5));
#787=DIRECTION('',(6.12303176911189E-17,1.0,0.0));
#788=DIRECTION('',(-1.0,6.12303176911189E-17,0.0));
#789=ORIENTED_EDGE('',*,*,#933,.T.);
#790=ORIENTED_EDGE('',*,*,#894,.F.);
#791=ORIENTED_EDGE('',*,*,#931,.F.);
#792=ORIENTED_EDGE('',*,*,#883,.F.);
#793=CARTESIAN_POINT('',(-1.42816205910001E-14,81.1,-8.5));
#794=DIRECTION('',(-1.0,-1.22460635382238E-16,0.0));
#795=DIRECTION('',(1.22460635382238E-16,-1.0,0.0));
#796=ORIENTED_EDGE('',*,*,#932,.F.);
#797=ORIENTED_EDGE('',*,*,#923,.F.);
#798=ORIENTED_EDGE('',*,*,#933,.F.);
#799=ORIENTED_EDGE('',*,*,#882,.F.);
#800=CARTESIAN_POINT('',(5.09999999999999,78.1,-8.5));
#801=DIRECTION('',(0.0,0.0,1.0));
#802=DIRECTION('',(1.0,0.0,0.0));
#803=ORIENTED_EDGE('',*,*,#810,.T.);
#804=ORIENTED_EDGE('',*,*,#828,.F.);
#805=ORIENTED_EDGE('',*,*,#811,.T.);
#806=CARTESIAN_POINT('',(-7.105427357601E-15,87.5,-499.056624327026));
#807=DIRECTION('',(-0.0,0.0,-1.0));
#808=DIRECTION('',(-1.0,0.0,0.0));
#809=FILL_AREA_STYLE_COLOUR('',#934);
#810=EDGE_CURVE('',#935,#936,#937,.T.);
#811=EDGE_CURVE('',#938,#935,#939,.T.);
#812=EDGE_CURVE('',#936,#938,#940,.T.);
#813=EDGE_CURVE('',#941,#938,#942,.T.);
#814=EDGE_CURVE('',#941,#943,#944,.T.);
#815=EDGE_CURVE('',#936,#943,#945,.T.);
#816=EDGE_CURVE('',#946,#947,#948,.T.);
#817=EDGE_CURVE('',#946,#949,#950,.T.);
#818=EDGE_CURVE('',#951,#949,#952,.T.);
#819=EDGE_CURVE('',#951,#947,#953,.T.);
#820=EDGE_CURVE('',#954,#951,#955,.T.);
#821=EDGE_CURVE('',#947,#954,#956,.T.);
#822=EDGE_CURVE('',#947,#951,#957,.T.);
#823=EDGE_CURVE('',#958,#959,#960,.F.);
#824=EDGE_CURVE('',#958,#961,#962,.T.);
#825=EDGE_CURVE('',#963,#961,#964,.T.);
#826=EDGE_CURVE('',#963,#959,#965,.F.);
#827=EDGE_CURVE('',#949,#946,#966,.T.);
#828=EDGE_CURVE('',#938,#936,#967,.T.);
#829=EDGE_CURVE('',#943,#941,#968,.T.);
#830=EDGE_CURVE('',#969,#970,#971,.T.);
#831=EDGE_CURVE('',#972,#970,#973,.F.);
#832=EDGE_CURVE('',#972,#974,#975,.T.);
#833=EDGE_CURVE('',#969,#974,#976,.T.);
#834=EDGE_CURVE('',#977,#978,#979,.T.);
#835=EDGE_CURVE('',#974,#978,#980,.T.);
#836=EDGE_CURVE('',#977,#972,#981,.F.);
#837=EDGE_CURVE('',#982,#983,#984,.T.);
#838=EDGE_CURVE('',#970,#983,#985,.F.);
#839=EDGE_CURVE('',#982,#969,#986,.T.);
#840=EDGE_CURVE('',#987,#988,#989,.T.);
#841=EDGE_CURVE('',#978,#988,#990,.T.);
#842=EDGE_CURVE('',#987,#977,#991,.F.);
#843=EDGE_CURVE('',#992,#993,#994,.T.);
#844=EDGE_CURVE('',#983,#993,#995,.F.);
#845=EDGE_CURVE('',#992,#982,#996,.T.);
#846=EDGE_CURVE('',#997,#998,#999,.T.);
#847=EDGE_CURVE('',#988,#998,#1000,.T.);
#848=EDGE_CURVE('',#997,#987,#1001,.F.);
#849=EDGE_CURVE('',#1002,#1003,#1004,.T.);
#850=EDGE_CURVE('',#993,#1003,#1005,.F.);
#851=EDGE_CURVE('',#1002,#992,#1006,.T.);
#852=EDGE_CURVE('',#1003,#997,#1007,.F.);
#853=EDGE_CURVE('',#998,#1002,#1008,.T.);
#854=EDGE_CURVE('',#1009,#961,#1010,.T.);
#855=EDGE_CURVE('',#958,#1011,#1012,.T.);
#856=EDGE_CURVE('',#1009,#1011,#1013,.F.);
#857=EDGE_CURVE('',#1014,#1015,#1016,.T.);
#858=EDGE_CURVE('',#1011,#1015,#1017,.F.);
#859=EDGE_CURVE('',#1014,#958,#1018,.T.);
#860=EDGE_CURVE('',#1019,#1020,#1021,.T.);
#861=EDGE_CURVE('',#961,#1020,#1022,.T.);
#862=EDGE_CURVE('',#1019,#1009,#1023,.F.);
#863=EDGE_CURVE('',#1024,#1025,#1026,.T.);
#864=EDGE_CURVE('',#1015,#1025,#1027,.F.);
#865=EDGE_CURVE('',#1024,#1014,#1028,.T.);
#866=EDGE_CURVE('',#1029,#1030,#1031,.T.);
#867=EDGE_CURVE('',#1020,#1030,#1032,.T.);
#868=EDGE_CURVE('',#1029,#1019,#1033,.F.);
#869=EDGE_CURVE('',#1034,#1035,#1036,.T.);
#870=EDGE_CURVE('',#1025,#1035,#1037,.F.);
#871=EDGE_CURVE('',#1034,#1024,#1038,.T.);
#872=EDGE_CURVE('',#1039,#1040,#1041,.T.);
#873=EDGE_CURVE('',#1030,#1040,#1042,.T.);
#874=EDGE_CURVE('',#1039,#1029,#1043,.F.);
#875=EDGE_CURVE('',#1040,#1034,#1044,.T.);
#876=EDGE_CURVE('',#1035,#1039,#1045,.F.);
#877=EDGE_CURVE('',#1046,#1047,#1048,.T.);
#878=EDGE_CURVE('',#1047,#1049,#1050,.T.);
#879=EDGE_CURVE('',#1049,#1051,#1052,.T.);
#880=EDGE_CURVE('',#1051,#1053,#1054,.T.);
#881=EDGE_CURVE('',#1053,#1055,#1056,.T.);
#882=EDGE_CURVE('',#1055,#1057,#1058,.T.);
#883=EDGE_CURVE('',#1057,#1059,#1060,.T.);
#884=EDGE_CURVE('',#1059,#1046,#1061,.T.);
#885=EDGE_CURVE('',#1062,#1034,#1063,.T.);
#886=EDGE_CURVE('',#1024,#1064,#1065,.F.);
#887=EDGE_CURVE('',#1064,#1062,#1066,.F.);
#888=EDGE_CURVE('',#1067,#1030,#1068,.T.);
#889=EDGE_CURVE('',#1040,#1069,#1070,.F.);
#890=EDGE_CURVE('',#1069,#1067,#1071,.F.);
#891=EDGE_CURVE('',#1020,#1072,#1073,.F.);
#892=EDGE_CURVE('',#1072,#963,#1074,.F.);
#893=EDGE_CURVE('',#1075,#1014,#1076,.T.);
#894=EDGE_CURVE('',#959,#1075,#1077,.F.);
#895=EDGE_CURVE('',#1078,#1079,#1080,.T.);
#896=EDGE_CURVE('',#1079,#1081,#1082,.T.);
#897=EDGE_CURVE('',#1081,#1083,#1084,.T.);
#898=EDGE_CURVE('',#1083,#1078,#1085,.T.);
#899=EDGE_CURVE('',#1086,#1087,#1088,.T.);
#900=EDGE_CURVE('',#1078,#1087,#1089,.T.);
#901=EDGE_CURVE('',#1083,#1086,#1090,.T.);
#902=EDGE_CURVE('',#1091,#1086,#1092,.T.);
#903=EDGE_CURVE('',#1081,#1091,#1093,.T.);
#904=EDGE_CURVE('',#1094,#1091,#1095,.T.);
#905=EDGE_CURVE('',#1079,#1094,#1096,.T.);
#906=EDGE_CURVE('',#1087,#1094,#1097,.T.);
#907=EDGE_CURVE('',#1098,#1099,#1100,.T.);
#908=EDGE_CURVE('',#1101,#1098,#1102,.T.);
#909=EDGE_CURVE('',#1103,#1101,#1104,.T.);
#910=EDGE_CURVE('',#1105,#1103,#1106,.T.);
#911=EDGE_CURVE('',#1107,#1105,#1108,.T.);
#912=EDGE_CURVE('',#1109,#1107,#1110,.T.);
#913=EDGE_CURVE('',#1111,#1109,#1112,.T.);
#914=EDGE_CURVE('',#1099,#1111,#1113,.T.);
#915=EDGE_CURVE('',#970,#1098,#1114,.T.);
#916=EDGE_CURVE('',#983,#1101,#1115,.T.);
#917=EDGE_CURVE('',#993,#1103,#1116,.T.);
#918=EDGE_CURVE('',#1003,#1105,#1117,.T.);
#919=EDGE_CURVE('',#997,#1107,#1118,.T.);
#920=EDGE_CURVE('',#987,#1109,#1119,.T.);
#921=EDGE_CURVE('',#977,#1111,#1120,.T.);
#922=EDGE_CURVE('',#972,#1099,#1121,.T.);
#923=EDGE_CURVE('',#1075,#1064,#1122,.F.);
#924=EDGE_CURVE('',#1067,#1072,#1123,.F.);
#925=EDGE_CURVE('',#1062,#1069,#1124,.F.);
#926=EDGE_CURVE('',#1047,#1072,#1125,.T.);
#927=EDGE_CURVE('',#1067,#1049,#1126,.T.);
#928=EDGE_CURVE('',#1069,#1051,#1127,.T.);
#929=EDGE_CURVE('',#1046,#963,#1128,.T.);
#930=EDGE_CURVE('',#1062,#1053,#1129,.T.);
#931=EDGE_CURVE('',#1059,#959,#1130,.T.);
#932=EDGE_CURVE('',#1064,#1055,#1131,.T.);
#933=EDGE_CURVE('',#1057,#1075,#1132,.T.);
#934=COLOUR_RGB('',0.996078431606293,0.996078431606293,1.0);
#935=VERTEX_POINT('',#1133);
#936=VERTEX_POINT('',#1134);
#937=LINE('',#1135,#1136);
#938=VERTEX_POINT('',#1137);
#939=LINE('',#1138,#1139);
#940=CIRCLE('',#1140,2.5);
#941=VERTEX_POINT('',#1141);
#942=LINE('',#1142,#1143);
#943=VERTEX_POINT('',#1144);
#944=CIRCLE('',#1145,2.5);
#945=LINE('',#1146,#1147);
#946=VERTEX_POINT('',#1148);
#947=VERTEX_POINT('',#1149);
#948=LINE('',#1150,#1151);
#949=VERTEX_POINT('',#1152);
#950=CIRCLE('',#1153,2.5);
#951=VERTEX_POINT('',#1154);
#952=LINE('',#1155,#1156);
#953=CIRCLE('',#1157,2.5);
#954=VERTEX_POINT('',#1158);
#955=LINE('',#1159,#1160);
#956=LINE('',#1161,#1162);
#957=CIRCLE('',#1163,2.5);
#958=VERTEX_POINT('',#1164);
#959=VERTEX_POINT('',#1165);
#960=LINE('',#1166,#1167);
#961=VERTEX_POINT('',#1168);
#962=CIRCLE('',#1169,5.0);
#963=VERTEX_POINT('',#1170);
#964=LINE('',#1171,#1172);
#965=CIRCLE('',#1173,5.0);
#966=CIRCLE('',#1174,2.5);
#967=CIRCLE('',#1175,2.5);
#968=CIRCLE('',#1176,2.5);
#969=VERTEX_POINT('',#1177);
#970=VERTEX_POINT('',#1178);
#971=CIRCLE('',#1179,1.0);
#972=VERTEX_POINT('',#1180);
#973=CIRCLE('',#1181,5.0);
#974=VERTEX_POINT('',#1182);
#975=CIRCLE('',#1183,1.0);
#976=CIRCLE('',#1184,4.0);
#977=VERTEX_POINT('',#1185);
#978=VERTEX_POINT('',#1186);
#979=CIRCLE('',#1187,1.0);
#980=LINE('',#1188,#1189);
#981=LINE('',#1190,#1191);
#982=VERTEX_POINT('',#1192);
#983=VERTEX_POINT('',#1193);
#984=CIRCLE('',#1194,1.0);
#985=LINE('',#1195,#1196);
#986=LINE('',#1197,#1198);
#987=VERTEX_POINT('',#1199);
#988=VERTEX_POINT('',#1200);
#989=CIRCLE('',#1201,1.0);
#990=CIRCLE('',#1202,4.0);
#991=CIRCLE('',#1203,5.0);
#992=VERTEX_POINT('',#1204);
#993=VERTEX_POINT('',#1205);
#994=CIRCLE('',#1206,1.0);
#995=CIRCLE('',#1207,5.0);
#996=CIRCLE('',#1208,4.0);
#997=VERTEX_POINT('',#1209);
#998=VERTEX_POINT('',#1210);
#999=CIRCLE('',#1211,1.0);
#1000=LINE('',#1212,#1213);
#1001=LINE('',#1214,#1215);
#1002=VERTEX_POINT('',#1216);
#1003=VERTEX_POINT('',#1217);
#1004=CIRCLE('',#1218,1.0);
#1005=LINE('',#1219,#1220);
#1006=LINE('',#1221,#1222);
#1007=CIRCLE('',#1223,5.0);
#1008=CIRCLE('',#1224,4.0);
#1009=VERTEX_POINT('',#1225);
#1010=CIRCLE('',#1226,1.0);
#1011=VERTEX_POINT('',#1227);
#1012=CIRCLE('',#1228,1.0);
#1013=CIRCLE('',#1229,6.0);
#1014=VERTEX_POINT('',#1230);
#1015=VERTEX_POINT('',#1231);
#1016=CIRCLE('',#1232,1.0);
#1017=LINE('',#1233,#1234);
#1018=LINE('',#1235,#1236);
#1019=VERTEX_POINT('',#1237);
#1020=VERTEX_POINT('',#1238);
#1021=CIRCLE('',#1239,1.0);
#1022=LINE('',#1240,#1241);
#1023=LINE('',#1242,#1243);
#1024=VERTEX_POINT('',#1244);
#1025=VERTEX_POINT('',#1245);
#1026=CIRCLE('',#1246,1.0);
#1027=CIRCLE('',#1247,6.0);
#1028=CIRCLE('',#1248,5.0);
#1029=VERTEX_POINT('',#1249);
#1030=VERTEX_POINT('',#1250);
#1031=CIRCLE('',#1251,1.0);
#1032=CIRCLE('',#1252,5.0);
#1033=CIRCLE('',#1253,6.0);
#1034=VERTEX_POINT('',#1254);
#1035=VERTEX_POINT('',#1255);
#1036=CIRCLE('',#1256,1.0);
#1037=LINE('',#1257,#1258);
#1038=LINE('',#1259,#1260);
#1039=VERTEX_POINT('',#1261);
#1040=VERTEX_POINT('',#1262);
#1041=CIRCLE('',#1263,1.0);
#1042=LINE('',#1264,#1265);
#1043=LINE('',#1266,#1267);
#1044=CIRCLE('',#1268,5.0);
#1045=CIRCLE('',#1269,6.0);
#1046=VERTEX_POINT('',#1270);
#1047=VERTEX_POINT('',#1271);
#1048=LINE('',#1272,#1273);
#1049=VERTEX_POINT('',#1274);
#1050=CIRCLE('',#1275,3.0);
#1051=VERTEX_POINT('',#1276);
#1052=LINE('',#1277,#1278);
#1053=VERTEX_POINT('',#1279);
#1054=CIRCLE('',#1280,3.0);
#1055=VERTEX_POINT('',#1281);
#1056=LINE('',#1282,#1283);
#1057=VERTEX_POINT('',#1284);
#1058=CIRCLE('',#1285,3.0);
#1059=VERTEX_POINT('',#1286);
#1060=LINE('',#1287,#1288);
#1061=CIRCLE('',#1289,3.0);
#1062=VERTEX_POINT('',#1290);
#1063=LINE('',#1291,#1292);
#1064=VERTEX_POINT('',#1293);
#1065=LINE('',#1294,#1295);
#1066=LINE('',#1296,#1297);
#1067=VERTEX_POINT('',#1298);
#1068=LINE('',#1299,#1300);
#1069=VERTEX_POINT('',#1301);
#1070=LINE('',#1302,#1303);
#1071=LINE('',#1304,#1305);
#1072=VERTEX_POINT('',#1306);
#1073=LINE('',#1307,#1308);
#1074=LINE('',#1309,#1310);
#1075=VERTEX_POINT('',#1311);
#1076=LINE('',#1312,#1313);
#1077=LINE('',#1314,#1315);
#1078=VERTEX_POINT('',#1316);
#1079=VERTEX_POINT('',#1317);
#1080=CIRCLE('',#1318,12.2);
#1081=VERTEX_POINT('',#1319);
#1082=LINE('',#1320,#1321);
#1083=VERTEX_POINT('',#1322);
#1084=CIRCLE('',#1323,12.2);
#1085=LINE('',#1324,#1325);
#1086=VERTEX_POINT('',#1326);
#1087=VERTEX_POINT('',#1327);
#1088=LINE('',#1328,#1329);
#1089=LINE('',#1330,#1331);
#1090=LINE('',#1332,#1333);
#1091=VERTEX_POINT('',#1334);
#1092=CIRCLE('',#1335,12.2);
#1093=LINE('',#1336,#1337);
#1094=VERTEX_POINT('',#1338);
#1095=LINE('',#1339,#1340);
#1096=LINE('',#1341,#1342);
#1097=CIRCLE('',#1343,12.2);
#1098=VERTEX_POINT('',#1344);
#1099=VERTEX_POINT('',#1345);
#1100=CIRCLE('',#1346,5.0);
#1101=VERTEX_POINT('',#1347);
#1102=LINE('',#1348,#1349);
#1103=VERTEX_POINT('',#1350);
#1104=CIRCLE('',#1351,5.0);
#1105=VERTEX_POINT('',#1352);
#1106=LINE('',#1353,#1354);
#1107=VERTEX_POINT('',#1355);
#1108=CIRCLE('',#1356,5.0);
#1109=VERTEX_POINT('',#1357);
#1110=LINE('',#1358,#1359);
#1111=VERTEX_POINT('',#1360);
#1112=CIRCLE('',#1361,5.0);
#1113=LINE('',#1362,#1363);
#1114=LINE('',#1364,#1365);
#1115=LINE('',#1366,#1367);
#1116=LINE('',#1368,#1369);
#1117=LINE('',#1370,#1371);
#1118=LINE('',#1372,#1373);
#1119=LINE('',#1374,#1375);
#1120=LINE('',#1376,#1377);
#1121=LINE('',#1378,#1379);
#1122=CIRCLE('',#1380,5.0);
#1123=CIRCLE('',#1381,5.0);
#1124=CIRCLE('',#1382,5.0);
#1125=CIRCLE('',#1383,2.0);
#1126=CIRCLE('',#1384,2.0);
#1127=CIRCLE('',#1385,2.0);
#1128=CIRCLE('',#1386,2.0);
#1129=CIRCLE('',#1387,2.0);
#1130=CIRCLE('',#1388,2.0);
#1131=CIRCLE('',#1389,2.0);
#1132=CIRCLE('',#1390,2.0);
#1133=CARTESIAN_POINT('',(-7.105427357601E-15,87.5,0.943375672974065));
#1134=CARTESIAN_POINT('',(2.49999999999999,87.5,-0.5));
#1135=CARTESIAN_POINT('',(866.025403784439,87.5000000000001,-499.056624327026));
#1136=VECTOR('',#1391,1.0);
#1137=CARTESIAN_POINT('',(-2.50000000000001,87.5,-0.5));
#1138=CARTESIAN_POINT('',(-866.025403784439,87.4999999999999,-499.056624327026));
#1139=VECTOR('',#1392,1.0);
#1140=AXIS2_PLACEMENT_3D('',#1393,#1394,#1395);
#1141=CARTESIAN_POINT('',(-2.50000000000001,87.5,-12.5));
#1142=CARTESIAN_POINT('',(-2.50000000000001,87.5,-0.5));
#1143=VECTOR('',#1396,1.0);
#1144=CARTESIAN_POINT('',(2.49999999999999,87.5,-12.5));
#1145=AXIS2_PLACEMENT_3D('',#1397,#1398,#1399);
#1146=CARTESIAN_POINT('',(2.49999999999999,87.5,-0.5));
#1147=VECTOR('',#1400,1.0);
#1148=CARTESIAN_POINT('',(-2.50000000000001,7.5,-12.5));
#1149=CARTESIAN_POINT('',(-2.50000000000001,7.5,-0.5));
#1150=CARTESIAN_POINT('',(-2.50000000000001,7.5,-0.5));
#1151=VECTOR('',#1401,1.0);
#1152=CARTESIAN_POINT('',(2.49999999999999,7.5,-12.5));
#1153=AXIS2_PLACEMENT_3D('',#1402,#1403,#1404);
#1154=CARTESIAN_POINT('',(2.49999999999999,7.5,-0.5));
#1155=CARTESIAN_POINT('',(2.49999999999999,7.5,-0.5));
#1156=VECTOR('',#1405,1.0);
#1157=AXIS2_PLACEMENT_3D('',#1406,#1407,#1408);
#1158=CARTESIAN_POINT('',(-7.105427357601E-15,7.5,0.943375672974065));
#1159=CARTESIAN_POINT('',(866.025403784439,7.50000000000011,-499.056624327026));
#1160=VECTOR('',#1409,1.0);
#1161=CARTESIAN_POINT('',(-866.025403784439,7.49999999999989,-499.056624327026));
#1162=VECTOR('',#1410,1.0);
#1163=AXIS2_PLACEMENT_3D('',#1411,#1412,#1413);
#1164=CARTESIAN_POINT('',(-5.10000000000001,83.1,1.5));
#1165=CARTESIAN_POINT('',(-5.10000000000001,83.1,-8.5));
#1166=CARTESIAN_POINT('',(-5.10000000000001,83.1,-10.5));
#1167=VECTOR('',#1414,1.0);
#1168=CARTESIAN_POINT('',(-10.1,78.1,1.5));
#1169=AXIS2_PLACEMENT_3D('',#1415,#1416,#1417);
#1170=CARTESIAN_POINT('',(-10.1,78.1,-8.5));
#1171=CARTESIAN_POINT('',(-10.1,78.1,2.5));
#1172=VECTOR('',#1418,1.0);
#1173=AXIS2_PLACEMENT_3D('',#1419,#1420,#1421);
#1174=AXIS2_PLACEMENT_3D('',#1422,#1423,#1424);
#1175=AXIS2_PLACEMENT_3D('',#1425,#1426,#1427);
#1176=AXIS2_PLACEMENT_3D('',#1428,#1429,#1430);
#1177=CARTESIAN_POINT('',(-12.0,101.5,2.5));
#1178=CARTESIAN_POINT('',(-12.0,102.5,1.5));
#1179=AXIS2_PLACEMENT_3D('',#1431,#1432,#1433);
#1180=CARTESIAN_POINT('',(-17.0,97.5,1.5));
#1181=AXIS2_PLACEMENT_3D('',#1434,#1435,#1436);
#1182=CARTESIAN_POINT('',(-16.0,97.5,2.5));
#1183=AXIS2_PLACEMENT_3D('',#1437,#1438,#1439);
#1184=AXIS2_PLACEMENT_3D('',#1440,#1441,#1442);
#1185=CARTESIAN_POINT('',(-17.0,-52.5,1.5));
#1186=CARTESIAN_POINT('',(-16.0,-52.5,2.5));
#1187=AXIS2_PLACEMENT_3D('',#1443,#1444,#1445);
#1188=CARTESIAN_POINT('',(-16.0,-52.5,2.5));
#1189=VECTOR('',#1446,1.0);
#1190=CARTESIAN_POINT('',(-17.0,97.5,1.5));
#1191=VECTOR('',#1447,1.0);
#1192=CARTESIAN_POINT('',(12.0,101.5,2.5));
#1193=CARTESIAN_POINT('',(12.0,102.5,1.5));
#1194=AXIS2_PLACEMENT_3D('',#1448,#1449,#1450);
#1195=CARTESIAN_POINT('',(12.0,102.5,1.5));
#1196=VECTOR('',#1451,1.0);
#1197=CARTESIAN_POINT('',(-12.0,101.5,2.5));
#1198=VECTOR('',#1452,1.0);
#1199=CARTESIAN_POINT('',(-12.0,-57.5,1.5));
#1200=CARTESIAN_POINT('',(-12.0,-56.5,2.5));
#1201=AXIS2_PLACEMENT_3D('',#1453,#1454,#1455);
#1202=AXIS2_PLACEMENT_3D('',#1456,#1457,#1458);
#1203=AXIS2_PLACEMENT_3D('',#1459,#1460,#1461);
#1204=CARTESIAN_POINT('',(16.0,97.5,2.5));
#1205=CARTESIAN_POINT('',(17.0,97.5,1.5));
#1206=AXIS2_PLACEMENT_3D('',#1462,#1463,#1464);
#1207=AXIS2_PLACEMENT_3D('',#1465,#1466,#1467);
#1208=AXIS2_PLACEMENT_3D('',#1468,#1469,#1470);
#1209=CARTESIAN_POINT('',(12.0,-57.5,1.5));
#1210=CARTESIAN_POINT('',(12.0,-56.5,2.5));
#1211=AXIS2_PLACEMENT_3D('',#1471,#1472,#1473);
#1212=CARTESIAN_POINT('',(12.0,-56.5,2.5));
#1213=VECTOR('',#1474,1.0);
#1214=CARTESIAN_POINT('',(-12.0,-57.5,1.5));
#1215=VECTOR('',#1475,1.0);
#1216=CARTESIAN_POINT('',(16.0,-52.5,2.5));
#1217=CARTESIAN_POINT('',(17.0,-52.5,1.5));
#1218=AXIS2_PLACEMENT_3D('',#1476,#1477,#1478);
#1219=CARTESIAN_POINT('',(17.0,-52.5,1.5));
#1220=VECTOR('',#1479,1.0);
#1221=CARTESIAN_POINT('',(16.0,97.5,2.5));
#1222=VECTOR('',#1480,1.0);
#1223=AXIS2_PLACEMENT_3D('',#1481,#1482,#1483);
#1224=AXIS2_PLACEMENT_3D('',#1484,#1485,#1486);
#1225=CARTESIAN_POINT('',(-11.1,78.1,2.5));
#1226=AXIS2_PLACEMENT_3D('',#1487,#1488,#1489);
#1227=CARTESIAN_POINT('',(-5.10000000000001,84.1,2.5));
#1228=AXIS2_PLACEMENT_3D('',#1490,#1491,#1492);
#1229=AXIS2_PLACEMENT_3D('',#1493,#1494,#1495);
#1230=CARTESIAN_POINT('',(5.09999999999999,83.1,1.5));
#1231=CARTESIAN_POINT('',(5.09999999999999,84.1,2.5));
#1232=AXIS2_PLACEMENT_3D('',#1496,#1497,#1498);
#1233=CARTESIAN_POINT('',(5.09999999999999,84.1,2.5));
#1234=VECTOR('',#1499,1.0);
#1235=CARTESIAN_POINT('',(-5.10000000000001,83.1,1.5));
#1236=VECTOR('',#1500,1.0);
#1237=CARTESIAN_POINT('',(-11.1,16.9,2.5));
#1238=CARTESIAN_POINT('',(-10.1,16.9,1.5));
#1239=AXIS2_PLACEMENT_3D('',#1501,#1502,#1503);
#1240=CARTESIAN_POINT('',(-10.1,16.9,1.5));
#1241=VECTOR('',#1504,1.0);
#1242=CARTESIAN_POINT('',(-11.1,78.1,2.5));
#1243=VECTOR('',#1505,1.0);
#1244=CARTESIAN_POINT('',(10.1,78.1,1.5));
#1245=CARTESIAN_POINT('',(11.1,78.1,2.5));
#1246=AXIS2_PLACEMENT_3D('',#1506,#1507,#1508);
#1247=AXIS2_PLACEMENT_3D('',#1509,#1510,#1511);
#1248=AXIS2_PLACEMENT_3D('',#1512,#1513,#1514);
#1249=CARTESIAN_POINT('',(-5.10000000000001,10.9,2.5));
#1250=CARTESIAN_POINT('',(-5.10000000000001,11.9,1.5));
#1251=AXIS2_PLACEMENT_3D('',#1515,#1516,#1517);
#1252=AXIS2_PLACEMENT_3D('',#1518,#1519,#1520);
#1253=AXIS2_PLACEMENT_3D('',#1521,#1522,#1523);
#1254=CARTESIAN_POINT('',(10.1,16.9,1.5));
#1255=CARTESIAN_POINT('',(11.1,16.9,2.5));
#1256=AXIS2_PLACEMENT_3D('',#1524,#1525,#1526);
#1257=CARTESIAN_POINT('',(11.1,16.9,2.5));
#1258=VECTOR('',#1527,1.0);
#1259=CARTESIAN_POINT('',(10.1,78.1,1.5));
#1260=VECTOR('',#1528,1.0);
#1261=CARTESIAN_POINT('',(5.09999999999999,10.9,2.5));
#1262=CARTESIAN_POINT('',(5.09999999999999,11.9,1.5));
#1263=AXIS2_PLACEMENT_3D('',#1529,#1530,#1531);
#1264=CARTESIAN_POINT('',(5.09999999999999,11.9,1.5));
#1265=VECTOR('',#1532,1.0);
#1266=CARTESIAN_POINT('',(-5.10000000000001,10.9,2.5));
#1267=VECTOR('',#1533,1.0);
#1268=AXIS2_PLACEMENT_3D('',#1534,#1535,#1536);
#1269=AXIS2_PLACEMENT_3D('',#1537,#1538,#1539);
#1270=CARTESIAN_POINT('',(-8.10000000000001,78.1,-10.5));
#1271=CARTESIAN_POINT('',(-8.10000000000001,16.9,-10.5));
#1272=CARTESIAN_POINT('',(-8.10000000000001,22.5,-10.5));
#1273=VECTOR('',#1540,1.0);
#1274=CARTESIAN_POINT('',(-5.10000000000001,13.9,-10.5));
#1275=AXIS2_PLACEMENT_3D('',#1541,#1542,#1543);
#1276=CARTESIAN_POINT('',(5.09999999999999,13.9,-10.5));
#1277=CARTESIAN_POINT('',(-7.105427357601E-15,13.9,-10.5));
#1278=VECTOR('',#1544,1.0);
#1279=CARTESIAN_POINT('',(8.09999999999999,16.9,-10.5));
#1280=AXIS2_PLACEMENT_3D('',#1545,#1546,#1547);
#1281=CARTESIAN_POINT('',(8.09999999999999,78.1,-10.5));
#1282=CARTESIAN_POINT('',(8.09999999999999,22.5,-10.5));
#1283=VECTOR('',#1548,1.0);
#1284=CARTESIAN_POINT('',(5.09999999999999,81.1,-10.5));
#1285=AXIS2_PLACEMENT_3D('',#1549,#1550,#1551);
#1286=CARTESIAN_POINT('',(-5.10000000000001,81.1,-10.5));
#1287=CARTESIAN_POINT('',(-1.42816205910001E-14,81.1,-10.5));
#1288=VECTOR('',#1552,1.0);
#1289=AXIS2_PLACEMENT_3D('',#1553,#1554,#1555);
#1290=CARTESIAN_POINT('',(10.1,16.9,-8.5));
#1291=CARTESIAN_POINT('',(10.1,16.9,2.5));
#1292=VECTOR('',#1556,1.0);
#1293=CARTESIAN_POINT('',(10.1,78.1,-8.5));
#1294=CARTESIAN_POINT('',(10.1,78.1,-10.5));
#1295=VECTOR('',#1557,1.0);
#1296=CARTESIAN_POINT('',(10.1,47.5,-8.5));
#1297=VECTOR('',#1558,1.0);
#1298=CARTESIAN_POINT('',(-5.10000000000001,11.9,-8.5));
#1299=CARTESIAN_POINT('',(-5.10000000000001,11.9,2.5));
#1300=VECTOR('',#1559,1.0);
#1301=CARTESIAN_POINT('',(5.09999999999999,11.9,-8.5));
#1302=CARTESIAN_POINT('',(5.09999999999999,11.9,-10.5));
#1303=VECTOR('',#1560,1.0);
#1304=CARTESIAN_POINT('',(-7.10546329180936E-15,11.9,-8.5));
#1305=VECTOR('',#1561,1.0);
#1306=CARTESIAN_POINT('',(-10.1,16.9,-8.5));
#1307=CARTESIAN_POINT('',(-10.1,16.9,-10.5));
#1308=VECTOR('',#1562,1.0);
#1309=CARTESIAN_POINT('',(-10.1,47.5,-8.5));
#1310=VECTOR('',#1563,1.0);
#1311=CARTESIAN_POINT('',(5.09999999999999,83.1,-8.5));
#1312=CARTESIAN_POINT('',(5.09999999999999,83.1,2.5));
#1313=VECTOR('',#1564,1.0);
#1314=CARTESIAN_POINT('',(-7.10546329180936E-15,83.1,-8.5));
#1315=VECTOR('',#1565,1.0);
#1316=CARTESIAN_POINT('',(12.2,12.2,-12.5));
#1317=CARTESIAN_POINT('',(-12.2,12.2,-12.5));
#1318=AXIS2_PLACEMENT_3D('',#1566,#1567,#1568);
#1319=CARTESIAN_POINT('',(-12.2,82.8,-12.5));
#1320=CARTESIAN_POINT('',(-12.2,47.5,-12.5));
#1321=VECTOR('',#1569,1.0);
#1322=CARTESIAN_POINT('',(12.2,82.8,-12.5));
#1323=AXIS2_PLACEMENT_3D('',#1570,#1571,#1572);
#1324=CARTESIAN_POINT('',(12.2,47.5,-12.5));
#1325=VECTOR('',#1573,1.0);
#1326=CARTESIAN_POINT('',(12.2,82.8,0.0));
#1327=CARTESIAN_POINT('',(12.2,12.2,0.0));
#1328=CARTESIAN_POINT('',(12.2,47.5,0.0));
#1329=VECTOR('',#1574,1.0);
#1330=CARTESIAN_POINT('',(12.2,12.2,-12.5));
#1331=VECTOR('',#1575,1.0);
#1332=CARTESIAN_POINT('',(12.2,82.8,-12.5));
#1333=VECTOR('',#1576,1.0);
#1334=CARTESIAN_POINT('',(-12.2,82.8,0.0));
#1335=AXIS2_PLACEMENT_3D('',#1577,#1578,#1579);
#1336=CARTESIAN_POINT('',(-12.2,82.8,-12.5));
#1337=VECTOR('',#1580,1.0);
#1338=CARTESIAN_POINT('',(-12.2,12.2,0.0));
#1339=CARTESIAN_POINT('',(-12.2,47.5,0.0));
#1340=VECTOR('',#1581,1.0);
#1341=CARTESIAN_POINT('',(-12.2,12.2,-12.5));
#1342=VECTOR('',#1582,1.0);
#1343=AXIS2_PLACEMENT_3D('',#1583,#1584,#1585);
#1344=CARTESIAN_POINT('',(-12.0,102.5,0.0));
#1345=CARTESIAN_POINT('',(-17.0,97.5,0.0));
#1346=AXIS2_PLACEMENT_3D('',#1586,#1587,#1588);
#1347=CARTESIAN_POINT('',(12.0,102.5,0.0));
#1348=CARTESIAN_POINT('',(-7.33672382106458E-15,102.5,0.0));
#1349=VECTOR('',#1589,1.0);
#1350=CARTESIAN_POINT('',(17.0,97.5,0.0));
#1351=AXIS2_PLACEMENT_3D('',#1590,#1591,#1592);
#1352=CARTESIAN_POINT('',(17.0,-52.5,0.0));
#1353=CARTESIAN_POINT('',(17.0,22.5,0.0));
#1354=VECTOR('',#1593,1.0);
#1355=CARTESIAN_POINT('',(12.0,-57.5,0.0));
#1356=AXIS2_PLACEMENT_3D('',#1594,#1595,#1596);
#1357=CARTESIAN_POINT('',(-12.0,-57.5,0.0));
#1358=CARTESIAN_POINT('',(-6.21408026427239E-15,-57.5,0.0));
#1359=VECTOR('',#1597,1.0);
#1360=CARTESIAN_POINT('',(-17.0,-52.5,0.0));
#1361=AXIS2_PLACEMENT_3D('',#1598,#1599,#1600);
#1362=CARTESIAN_POINT('',(-17.0,22.5,0.0));
#1363=VECTOR('',#1601,1.0);
#1364=CARTESIAN_POINT('',(-12.0,102.5,2.5));
#1365=VECTOR('',#1602,1.0);
#1366=CARTESIAN_POINT('',(12.0,102.5,2.5));
#1367=VECTOR('',#1603,1.0);
#1368=CARTESIAN_POINT('',(17.0,97.5,2.5));
#1369=VECTOR('',#1604,1.0);
#1370=CARTESIAN_POINT('',(17.0,-52.5,2.5));
#1371=VECTOR('',#1605,1.0);
#1372=CARTESIAN_POINT('',(12.0,-57.5,2.5));
#1373=VECTOR('',#1606,1.0);
#1374=CARTESIAN_POINT('',(-12.0,-57.5,2.5));
#1375=VECTOR('',#1607,1.0);
#1376=CARTESIAN_POINT('',(-17.0,-52.5,2.5));
#1377=VECTOR('',#1608,1.0);
#1378=CARTESIAN_POINT('',(-17.0,97.5,2.5));
#1379=VECTOR('',#1609,1.0);
#1380=AXIS2_PLACEMENT_3D('',#1610,#1611,#1612);
#1381=AXIS2_PLACEMENT_3D('',#1613,#1614,#1615);
#1382=AXIS2_PLACEMENT_3D('',#1616,#1617,#1618);
#1383=AXIS2_PLACEMENT_3D('',#1619,#1620,#1621);
#1384=AXIS2_PLACEMENT_3D('',#1622,#1623,#1624);
#1385=AXIS2_PLACEMENT_3D('',#1625,#1626,#1627);
#1386=AXIS2_PLACEMENT_3D('',#1628,#1629,#1630);
#1387=AXIS2_PLACEMENT_3D('',#1631,#1632,#1633);
#1388=AXIS2_PLACEMENT_3D('',#1634,#1635,#1636);
#1389=AXIS2_PLACEMENT_3D('',#1637,#1638,#1639);
#1390=AXIS2_PLACEMENT_3D('',#1640,#1641,#1642);
#1391=DIRECTION('',(0.86602540378444,9.94759830064141E-17,-0.499999999999998));
#1392=DIRECTION('',(0.86602540378444,9.94759830064141E-17,0.499999999999998));
#1393=CARTESIAN_POINT('',(-7.105427357601E-15,87.5,-0.5));
#1394=DIRECTION('',(0.0,0.0,1.0));
#1395=DIRECTION('',(-1.0,0.0,0.0));
#1396=DIRECTION('',(0.0,-0.0,1.0));
#1397=CARTESIAN_POINT('',(-7.105427357601E-15,87.5,-12.5));
#1398=DIRECTION('',(0.0,0.0,-1.0));
#1399=DIRECTION('',(-1.0,0.0,0.0));
#1400=DIRECTION('',(0.0,0.0,-1.0));
#1401=DIRECTION('',(0.0,-0.0,1.0));
#1402=CARTESIAN_POINT('',(-7.105427357601E-15,7.5,-12.5));
#1403=DIRECTION('',(0.0,0.0,-1.0));
#1404=DIRECTION('',(-1.0,0.0,0.0));
#1405=DIRECTION('',(0.0,0.0,-1.0));
#1406=CARTESIAN_POINT('',(-7.105427357601E-15,7.5,-0.5));
#1407=DIRECTION('',(0.0,0.0,1.0));
#1408=DIRECTION('',(-1.0,0.0,0.0));
#1409=DIRECTION('',(0.86602540378444,1.05693231944315E-16,-0.499999999999998));
#1410=DIRECTION('',(0.86602540378444,1.05693231944315E-16,0.499999999999998));
#1411=CARTESIAN_POINT('',(-7.105427357601E-15,7.5,-0.5));
#1412=DIRECTION('',(0.0,0.0,1.0));
#1413=DIRECTION('',(-1.0,0.0,0.0));
#1414=DIRECTION('',(0.0,0.0,1.0));
#1415=CARTESIAN_POINT('',(-5.10000000000001,78.1,1.5));
#1416=DIRECTION('',(0.0,0.0,1.0));
#1417=DIRECTION('',(1.0,0.0,0.0));
#1418=DIRECTION('',(0.0,0.0,1.0));
#1419=CARTESIAN_POINT('',(-5.10000000000001,78.1,-8.5));
#1420=DIRECTION('',(0.0,0.0,1.0));
#1421=DIRECTION('',(1.0,0.0,0.0));
#1422=CARTESIAN_POINT('',(-7.105427357601E-15,7.5,-12.5));
#1423=DIRECTION('',(0.0,0.0,-1.0));
#1424=DIRECTION('',(-1.0,0.0,0.0));
#1425=CARTESIAN_POINT('',(-7.105427357601E-15,87.5,-0.5));
#1426=DIRECTION('',(0.0,0.0,1.0));
#1427=DIRECTION('',(-1.0,0.0,0.0));
#1428=CARTESIAN_POINT('',(-7.105427357601E-15,87.5,-12.5));
#1429=DIRECTION('',(0.0,0.0,-1.0));
#1430=DIRECTION('',(-1.0,0.0,0.0));
#1431=CARTESIAN_POINT('',(-12.0,101.5,1.5));
#1432=DIRECTION('',(-1.0,0.0,0.0));
#1433=DIRECTION('',(0.0,0.0,1.0));
#1434=CARTESIAN_POINT('',(-12.0,97.5,1.5));
#1435=DIRECTION('',(0.0,0.0,1.0));
#1436=DIRECTION('',(1.0,0.0,0.0));
#1437=CARTESIAN_POINT('',(-16.0,97.5,1.5));
#1438=DIRECTION('',(0.0,1.0,0.0));
#1439=DIRECTION('',(0.0,0.0,1.0));
#1440=CARTESIAN_POINT('',(-12.0,97.5,2.5));
#1441=DIRECTION('',(0.0,0.0,1.0));
#1442=DIRECTION('',(1.0,0.0,0.0));
#1443=CARTESIAN_POINT('',(-16.0,-52.5,1.5));
#1444=DIRECTION('',(0.0,1.0,0.0));
#1445=DIRECTION('',(0.0,0.0,1.0));
#1446=DIRECTION('',(6.12303176911189E-17,-1.0,0.0));
#1447=DIRECTION('',(6.12303176911189E-17,-1.0,0.0));
#1448=CARTESIAN_POINT('',(12.0,101.5,1.5));
#1449=DIRECTION('',(-1.0,0.0,0.0));
#1450=DIRECTION('',(0.0,0.0,1.0));
#1451=DIRECTION('',(-1.0,1.22460635382238E-16,0.0));
#1452=DIRECTION('',(-1.0,1.22460635382238E-16,0.0));
#1453=CARTESIAN_POINT('',(-12.0,-56.5,1.5));
#1454=DIRECTION('',(-1.0,0.0,0.0));
#1455=DIRECTION('',(0.0,0.0,1.0));
#1456=CARTESIAN_POINT('',(-12.0,-52.5,2.5));
#1457=DIRECTION('',(0.0,0.0,1.0));
#1458=DIRECTION('',(1.0,0.0,0.0));
#1459=CARTESIAN_POINT('',(-12.0,-52.5,1.5));
#1460=DIRECTION('',(0.0,0.0,1.0));
#1461=DIRECTION('',(1.0,0.0,0.0));
#1462=CARTESIAN_POINT('',(16.0,97.5,1.5));
#1463=DIRECTION('',(0.0,1.0,0.0));
#1464=DIRECTION('',(0.0,0.0,1.0));
#1465=CARTESIAN_POINT('',(12.0,97.5,1.5));
#1466=DIRECTION('',(0.0,0.0,1.0));
#1467=DIRECTION('',(1.0,0.0,0.0));
#1468=CARTESIAN_POINT('',(12.0,97.5,2.5));
#1469=DIRECTION('',(0.0,0.0,1.0));
#1470=DIRECTION('',(1.0,0.0,0.0));
#1471=CARTESIAN_POINT('',(12.0,-56.5,1.5));
#1472=DIRECTION('',(-1.0,-1.73472347597681E-15,0.0));
#1473=DIRECTION('',(1.73472347597681E-15,-1.0,0.0));
#1474=DIRECTION('',(1.0,0.0,0.0));
#1475=DIRECTION('',(1.0,0.0,0.0));
#1476=CARTESIAN_POINT('',(16.0,-52.5,1.5));
#1477=DIRECTION('',(0.0,1.0,0.0));
#1478=DIRECTION('',(0.0,0.0,1.0));
#1479=DIRECTION('',(6.12303176911189E-17,1.0,0.0));
#1480=DIRECTION('',(6.12303176911189E-17,1.0,0.0));
#1481=CARTESIAN_POINT('',(12.0,-52.5,1.5));
#1482=DIRECTION('',(0.0,0.0,1.0));
#1483=DIRECTION('',(1.0,0.0,0.0));
#1484=CARTESIAN_POINT('',(12.0,-52.5,2.5));
#1485=DIRECTION('',(0.0,0.0,1.0));
#1486=DIRECTION('',(1.0,0.0,0.0));
#1487=CARTESIAN_POINT('',(-11.1,78.1,1.5));
#1488=DIRECTION('',(0.0,1.0,0.0));
#1489=DIRECTION('',(0.0,0.0,1.0));
#1490=CARTESIAN_POINT('',(-5.10000000000001,84.1,1.5));
#1491=DIRECTION('',(-1.0,0.0,0.0));
#1492=DIRECTION('',(0.0,0.0,1.0));
#1493=CARTESIAN_POINT('',(-5.10000000000001,78.1,2.5));
#1494=DIRECTION('',(0.0,0.0,1.0));
#1495=DIRECTION('',(1.0,0.0,0.0));
#1496=CARTESIAN_POINT('',(5.09999999999999,84.1,1.5));
#1497=DIRECTION('',(-1.0,0.0,0.0));
#1498=DIRECTION('',(0.0,0.0,1.0));
#1499=DIRECTION('',(-1.0,-1.22460635382238E-16,0.0));
#1500=DIRECTION('',(-1.0,-1.22460635382238E-16,0.0));
#1501=CARTESIAN_POINT('',(-11.1,16.9,1.5));
#1502=DIRECTION('',(0.0,1.0,0.0));
#1503=DIRECTION('',(0.0,0.0,1.0));
#1504=DIRECTION('',(6.12303176911189E-17,-1.0,0.0));
#1505=DIRECTION('',(6.12303176911189E-17,-1.0,0.0));
#1506=CARTESIAN_POINT('',(11.1,78.1,1.5));
#1507=DIRECTION('',(0.0,1.0,0.0));
#1508=DIRECTION('',(0.0,0.0,1.0));
#1509=CARTESIAN_POINT('',(5.09999999999999,78.1,2.5));
#1510=DIRECTION('',(0.0,0.0,1.0));
#1511=DIRECTION('',(1.0,0.0,0.0));
#1512=CARTESIAN_POINT('',(5.09999999999999,78.1,1.5));
#1513=DIRECTION('',(0.0,0.0,1.0));
#1514=DIRECTION('',(1.0,0.0,0.0));
#1515=CARTESIAN_POINT('',(-5.10000000000001,10.9,1.5));
#1516=DIRECTION('',(-1.0,0.0,0.0));
#1517=DIRECTION('',(0.0,0.0,1.0));
#1518=CARTESIAN_POINT('',(-5.10000000000001,16.9,1.5));
#1519=DIRECTION('',(0.0,0.0,1.0));
#1520=DIRECTION('',(1.0,0.0,0.0));
#1521=CARTESIAN_POINT('',(-5.10000000000001,16.9,2.5));
#1522=DIRECTION('',(0.0,0.0,1.0));
#1523=DIRECTION('',(1.0,0.0,0.0));
#1524=CARTESIAN_POINT('',(11.1,16.9,1.5));
#1525=DIRECTION('',(0.0,1.0,0.0));
#1526=DIRECTION('',(0.0,0.0,1.0));
#1527=DIRECTION('',(6.12303176911189E-17,1.0,0.0));
#1528=DIRECTION('',(6.12303176911189E-17,1.0,0.0));
#1529=CARTESIAN_POINT('',(5.09999999999999,10.9,1.5));
#1530=DIRECTION('',(-1.0,0.0,0.0));
#1531=DIRECTION('',(0.0,0.0,1.0));
#1532=DIRECTION('',(1.0,0.0,0.0));
#1533=DIRECTION('',(1.0,0.0,0.0));
#1534=CARTESIAN_POINT('',(5.09999999999999,16.9,1.5));
#1535=DIRECTION('',(0.0,0.0,1.0));
#1536=DIRECTION('',(1.0,0.0,0.0));
#1537=CARTESIAN_POINT('',(5.09999999999999,16.9,2.5));
#1538=DIRECTION('',(0.0,0.0,1.0));
#1539=DIRECTION('',(1.0,0.0,0.0));
#1540=DIRECTION('',(6.12303176911189E-17,-1.0,0.0));
#1541=CARTESIAN_POINT('',(-5.10000000000001,16.9,-10.5));
#1542=DIRECTION('',(0.0,0.0,1.0));
#1543=DIRECTION('',(1.0,0.0,0.0));
#1544=DIRECTION('',(1.0,0.0,0.0));
#1545=CARTESIAN_POINT('',(5.09999999999999,16.9,-10.5));
#1546=DIRECTION('',(0.0,0.0,1.0));
#1547=DIRECTION('',(1.0,0.0,0.0));
#1548=DIRECTION('',(6.12303176911189E-17,1.0,0.0));
#1549=CARTESIAN_POINT('',(5.09999999999999,78.1,-10.5));
#1550=DIRECTION('',(0.0,0.0,1.0));
#1551=DIRECTION('',(1.0,0.0,0.0));
#1552=DIRECTION('',(-1.0,-1.22460635382238E-16,0.0));
#1553=CARTESIAN_POINT('',(-5.10000000000001,78.1,-10.5));
#1554=DIRECTION('',(0.0,0.0,1.0));
#1555=DIRECTION('',(1.0,0.0,0.0));
#1556=DIRECTION('',(0.0,0.0,1.0));
#1557=DIRECTION('',(0.0,0.0,1.0));
#1558=DIRECTION('',(6.12303176911189E-17,1.0,0.0));
#1559=DIRECTION('',(0.0,0.0,1.0));
#1560=DIRECTION('',(0.0,0.0,1.0));
#1561=DIRECTION('',(1.0,0.0,0.0));
#1562=DIRECTION('',(0.0,0.0,1.0));
#1563=DIRECTION('',(6.12303176911189E-17,-1.0,0.0));
#1564=DIRECTION('',(0.0,0.0,1.0));
#1565=DIRECTION('',(-1.0,-1.22460635382238E-16,0.0));
#1566=CARTESIAN_POINT('',(-7.11234333718732E-15,12.2,-12.5));
#1567=DIRECTION('',(0.0,0.0,-1.0));
#1568=DIRECTION('',(-1.0,0.0,0.0));
#1569=DIRECTION('',(-6.12303176911189E-17,1.0,0.0));
#1570=CARTESIAN_POINT('',(-7.29874988705682E-15,82.8,-12.5));
#1571=DIRECTION('',(0.0,0.0,-1.0));
#1572=DIRECTION('',(-1.0,0.0,0.0));
#1573=DIRECTION('',(-6.12303176911189E-17,-1.0,0.0));
#1574=DIRECTION('',(-6.12303176911189E-17,-1.0,0.0));
#1575=DIRECTION('',(0.0,0.0,1.0));
#1576=DIRECTION('',(0.0,0.0,1.0));
#1577=CARTESIAN_POINT('',(-7.29874988705682E-15,82.8,0.0));
#1578=DIRECTION('',(0.0,0.0,-1.0));
#1579=DIRECTION('',(-1.0,0.0,0.0));
#1580=DIRECTION('',(0.0,0.0,1.0));
#1581=DIRECTION('',(-6.12303176911189E-17,1.0,0.0));
#1582=DIRECTION('',(0.0,0.0,1.0));
#1583=CARTESIAN_POINT('',(-7.11234333718732E-15,12.2,0.0));
#1584=DIRECTION('',(0.0,0.0,-1.0));
#1585=DIRECTION('',(-1.0,0.0,0.0));
#1586=CARTESIAN_POINT('',(-12.0,97.5,0.0));
#1587=DIRECTION('',(0.0,0.0,1.0));
#1588=DIRECTION('',(1.0,0.0,0.0));
#1589=DIRECTION('',(-1.0,1.22460635382238E-16,0.0));
#1590=CARTESIAN_POINT('',(12.0,97.5,0.0));
#1591=DIRECTION('',(0.0,0.0,1.0));
#1592=DIRECTION('',(1.0,0.0,0.0));
#1593=DIRECTION('',(6.12303176911189E-17,1.0,0.0));
#1594=CARTESIAN_POINT('',(12.0,-52.5,0.0));
#1595=DIRECTION('',(0.0,0.0,1.0));
#1596=DIRECTION('',(1.0,0.0,0.0));
#1597=DIRECTION('',(1.0,0.0,0.0));
#1598=CARTESIAN_POINT('',(-12.0,-52.5,0.0));
#1599=DIRECTION('',(0.0,0.0,1.0));
#1600=DIRECTION('',(1.0,0.0,0.0));
#1601=DIRECTION('',(6.12303176911189E-17,-1.0,0.0));
#1602=DIRECTION('',(0.0,0.0,-1.0));
#1603=DIRECTION('',(0.0,0.0,-1.0));
#1604=DIRECTION('',(0.0,0.0,-1.0));
#1605=DIRECTION('',(0.0,0.0,-1.0));
#1606=DIRECTION('',(0.0,0.0,-1.0));
#1607=DIRECTION('',(0.0,0.0,-1.0));
#1608=DIRECTION('',(0.0,0.0,-1.0));
#1609=DIRECTION('',(0.0,0.0,-1.0));
#1610=CARTESIAN_POINT('',(5.09999999999999,78.1,-8.5));
#1611=DIRECTION('',(0.0,0.0,1.0));
#1612=DIRECTION('',(1.0,0.0,0.0));
#1613=CARTESIAN_POINT('',(-5.10000000000001,16.9,-8.5));
#1614=DIRECTION('',(0.0,0.0,1.0));
#1615=DIRECTION('',(1.0,0.0,0.0));
#1616=CARTESIAN_POINT('',(5.09999999999999,16.9,-8.5));
#1617=DIRECTION('',(0.0,0.0,1.0));
#1618=DIRECTION('',(1.0,0.0,0.0));
#1619=CARTESIAN_POINT('',(-8.10000000000001,16.9,-8.5));
#1620=DIRECTION('',(0.0,1.0,0.0));
#1621=DIRECTION('',(0.0,0.0,1.0));
#1622=CARTESIAN_POINT('',(-5.10000000000001,13.9,-8.5));
#1623=DIRECTION('',(1.0,0.0,0.0));
#1624=DIRECTION('',(0.0,0.0,-1.0));
#1625=CARTESIAN_POINT('',(5.09999999999999,13.9,-8.5));
#1626=DIRECTION('',(1.0,0.0,0.0));
#1627=DIRECTION('',(0.0,0.0,-1.0));
#1628=CARTESIAN_POINT('',(-8.10000000000001,78.1,-8.5));
#1629=DIRECTION('',(0.0,1.0,0.0));
#1630=DIRECTION('',(0.0,0.0,1.0));
#1631=CARTESIAN_POINT('',(8.09999999999999,16.9,-8.5));
#1632=DIRECTION('',(0.0,1.0,0.0));
#1633=DIRECTION('',(0.0,0.0,1.0));
#1634=CARTESIAN_POINT('',(-5.10000000000001,81.1,-8.5));
#1635=DIRECTION('',(1.0,0.0,0.0));
#1636=DIRECTION('',(0.0,0.0,-1.0));
#1637=CARTESIAN_POINT('',(8.09999999999999,78.1,-8.5));
#1638=DIRECTION('',(0.0,1.0,0.0));
#1639=DIRECTION('',(0.0,0.0,1.0));
#1640=CARTESIAN_POINT('',(5.09999999999999,81.1,-8.5));
#1641=DIRECTION('',(1.0,0.0,0.0));
#1642=DIRECTION('',(0.0,0.0,-1.0));
ENDSEC;
END-ISO-10303-21;
